<svg id="svg" version="1.1" xmlns="http://www.w3.org/2000/svg" xmlns:xlink="http://www.w3.org/1999/xlink" width="400" height="400" viewBox="0, 0, 400,400"><g id="svgg"><path id="path0" d="M226.749 101.132 C 224.236 102.413,224.314 102.194,206.480 158.148 C 197.164 187.380,188.805 213.588,187.904 216.389 L 186.268 221.481 158.861 221.481 L 131.454 221.481 140.820 235.443 C 145.971 243.122,150.243 249.545,150.313 249.716 C 150.457 250.067,146.985 255.543,146.614 255.551 C 146.484 255.553,146.279 255.166,146.159 254.690 C 145.684 252.798,143.100 250.958,108.884 228.145 C 69.756 202.058,71.816 203.644,71.545 199.382 C 71.217 194.233,67.315 197.335,110.101 168.723 C 146.093 144.655,145.889 144.805,146.434 141.894 C 147.358 136.951,141.770 132.765,137.296 135.050 C 132.368 137.568,66.601 182.146,64.259 184.556 C 56.448 192.594,56.206 203.841,63.650 212.888 C 66.079 215.841,137.222 263.018,139.588 263.246 L 141.428 263.422 136.453 270.878 L 131.479 278.333 149.746 278.519 L 168.012 278.704 165.876 285.370 C 162.938 294.538,163.372 297.521,167.894 299.235 C 173.185 301.239,175.301 298.938,179.052 287.102 L 181.714 278.704 227.683 278.519 L 273.652 278.333 268.510 270.741 C 265.683 266.565,263.361 262.967,263.351 262.746 C 263.341 262.524,279.166 251.789,298.517 238.890 C 336.254 213.735,336.850 213.292,339.172 208.690 C 343.406 200.301,341.924 190.523,335.457 184.185 C 333.386 182.156,266.537 137.008,262.704 135.050 C 257.029 132.152,251.157 138.823,254.515 144.352 C 255.054 145.241,264.420 151.689,290.288 168.982 C 309.560 181.866,325.845 192.919,326.475 193.545 C 328.599 195.654,329.127 199.668,327.664 202.593 C 326.534 204.851,256.382 251.951,255.383 251.122 C 254.380 250.289,254.666 249.788,264.271 235.524 L 273.727 221.481 236.824 221.481 C 202.008 221.481,199.935 221.445,200.166 220.841 C 201.561 217.206,236.294 107.504,236.288 106.752 C 236.251 102.180,230.890 99.021,226.749 101.132 M169.999 228.056 C 169.998 228.616,168.914 237.796,167.591 248.457 C 166.268 259.117,165.185 268.076,165.185 268.364 C 165.185 268.803,166.706 268.889,174.461 268.889 L 183.737 268.889 183.535 270.185 C 183.424 270.898,183.242 272.065,183.131 272.778 L 182.929 274.074 170.724 274.074 L 158.519 274.074 158.519 273.179 C 158.519 272.686,159.769 262.178,161.296 249.827 C 162.824 237.476,164.074 227.296,164.074 227.204 C 164.074 227.112,165.407 227.037,167.037 227.037 L 170.000 227.037 169.999 228.056 M192.392 227.535 C 193.013 227.989,197.121 252.468,198.326 262.891 L 198.596 265.227 200.366 260.854 C 206.023 246.875,214.153 228.257,214.848 227.685 C 215.871 226.846,217.962 226.850,218.806 227.695 C 219.434 228.323,221.130 237.076,224.794 258.603 C 225.681 263.814,226.296 266.136,226.296 264.275 C 226.296 262.852,240.075 228.713,240.989 227.870 C 242.288 226.673,247.238 226.600,246.928 227.783 C 246.821 228.193,242.528 238.776,237.387 251.301 L 228.041 274.074 225.324 274.074 C 222.811 274.074,222.592 274.011,222.411 273.241 C 222.303 272.782,220.802 264.340,219.075 254.480 C 217.348 244.619,215.876 236.493,215.805 236.422 C 215.734 236.351,212.104 244.752,207.739 255.091 L 199.802 273.889 197.018 273.996 L 194.234 274.102 190.634 252.329 C 188.654 240.354,186.928 229.764,186.800 228.796 L 186.566 227.037 189.138 227.037 C 190.709 227.037,191.976 227.231,192.392 227.535 " stroke="none" fill="#f9fafa" fill-rule="evenodd"></path><path id="path1" d="M0.000 200.000 L 0.000 400.000 200.000 400.000 L 400.000 400.000 400.000 200.000 L 400.000 0.000 200.000 0.000 L 0.000 0.000 0.000 200.000 M233.585 101.692 C 235.010 102.779,236.275 105.147,236.288 106.752 C 236.294 107.504,201.561 217.206,200.166 220.841 C 199.935 221.445,202.008 221.481,236.824 221.481 L 273.727 221.481 264.271 235.524 C 254.666 249.788,254.380 250.289,255.383 251.122 C 256.382 251.951,326.534 204.851,327.664 202.593 C 329.127 199.668,328.599 195.654,326.475 193.545 C 325.845 192.919,309.560 181.866,290.288 168.982 C 264.420 151.689,255.054 145.241,254.515 144.352 C 251.157 138.823,257.029 132.152,262.704 135.050 C 266.537 137.008,333.386 182.156,335.457 184.185 C 341.924 190.523,343.406 200.301,339.172 208.690 C 336.850 213.292,336.254 213.735,298.517 238.890 C 279.166 251.789,263.341 262.524,263.351 262.746 C 263.361 262.967,265.683 266.565,268.510 270.741 L 273.652 278.333 227.683 278.519 L 181.714 278.704 179.052 287.102 C 175.301 298.938,173.185 301.239,167.894 299.235 C 163.372 297.521,162.938 294.538,165.876 285.370 L 168.012 278.704 149.746 278.519 L 131.479 278.333 136.453 270.878 L 141.428 263.422 139.588 263.246 C 137.222 263.018,66.079 215.841,63.650 212.888 C 56.206 203.841,56.448 192.594,64.259 184.556 C 66.601 182.146,132.368 137.568,137.296 135.050 C 141.770 132.765,147.358 136.951,146.434 141.894 C 145.889 144.805,146.093 144.655,110.101 168.723 C 67.315 197.335,71.217 194.233,71.545 199.382 C 71.816 203.644,69.756 202.058,108.884 228.145 C 143.100 250.958,145.684 252.798,146.159 254.690 C 146.279 255.166,146.484 255.553,146.614 255.551 C 146.985 255.543,150.457 250.067,150.313 249.716 C 150.243 249.545,145.971 243.122,140.820 235.443 L 131.454 221.481 158.861 221.481 L 186.268 221.481 187.904 216.389 C 188.805 213.588,197.164 187.380,206.480 158.148 C 215.797 128.917,223.812 104.311,224.292 103.470 C 226.092 100.314,230.638 99.445,233.585 101.692 M164.074 227.204 C 164.074 227.296,162.824 237.476,161.296 249.827 C 159.769 262.178,158.519 272.686,158.519 273.179 L 158.519 274.074 170.724 274.074 L 182.929 274.074 183.131 272.778 C 183.242 272.065,183.424 270.898,183.535 270.185 L 183.737 268.889 174.461 268.889 C 166.706 268.889,165.185 268.803,165.185 268.364 C 165.185 268.076,166.268 259.117,167.591 248.457 C 168.914 237.796,169.998 228.616,169.999 228.056 L 170.000 227.037 167.037 227.037 C 165.407 227.037,164.074 227.112,164.074 227.204 M186.800 228.796 C 186.928 229.764,188.654 240.354,190.634 252.329 L 194.234 274.102 197.018 273.996 L 199.802 273.889 207.739 255.091 C 212.104 244.752,215.734 236.351,215.805 236.422 C 215.876 236.493,217.348 244.619,219.075 254.480 C 220.802 264.340,222.303 272.782,222.411 273.241 C 222.592 274.011,222.811 274.074,225.324 274.074 L 228.041 274.074 237.387 251.301 C 242.528 238.776,246.821 228.193,246.928 227.783 C 247.238 226.600,242.288 226.673,240.989 227.870 C 240.075 228.713,226.296 262.852,226.296 264.275 C 226.296 266.136,225.681 263.814,224.794 258.603 C 221.130 237.076,219.434 228.323,218.806 227.695 C 217.962 226.850,215.871 226.846,214.848 227.685 C 214.153 228.257,206.023 246.875,200.366 260.854 L 198.596 265.227 198.326 262.891 C 198.178 261.607,196.935 253.238,195.565 244.295 C 192.725 225.763,193.200 227.037,189.138 227.037 L 186.566 227.037 186.800 228.796 " stroke="none" fill="#146c6c" fill-rule="evenodd"></path></g></svg>