<svg id="svg" version="1.1" xmlns="http://www.w3.org/2000/svg" xmlns:xlink="http://www.w3.org/1999/xlink" width="400" height="400" viewBox="0, 0, 400,400"><g id="svgg"><path id="path0" d="M164.074 227.192 C 164.074 227.277,162.824 237.452,161.296 249.803 C 159.769 262.153,158.519 272.667,158.519 273.166 L 158.519 274.074 170.724 274.074 L 182.929 274.074 183.131 272.778 C 183.242 272.065,183.424 270.898,183.535 270.185 L 183.737 268.889 174.461 268.889 C 167.286 268.889,165.186 268.784,165.187 268.426 C 165.188 268.171,166.270 259.213,167.593 248.519 C 168.915 237.824,169.997 228.616,169.998 228.056 L 170.000 227.037 167.037 227.037 C 165.407 227.037,164.074 227.107,164.074 227.192 M186.664 227.685 C 186.662 228.042,188.361 238.631,190.439 251.218 L 194.217 274.103 197.008 273.996 L 199.798 273.889 207.743 255.097 C 212.113 244.762,215.741 236.358,215.805 236.422 C 215.869 236.487,217.338 244.609,219.069 254.473 C 220.800 264.337,222.304 272.782,222.412 273.241 C 222.640 274.218,227.884 274.551,228.248 273.611 C 228.346 273.356,232.614 262.943,237.732 250.471 C 242.850 237.999,247.037 227.624,247.037 227.416 C 247.037 226.591,241.964 226.972,240.984 227.870 C 240.165 228.622,226.296 262.761,226.296 264.027 C 226.296 264.257,226.130 264.444,225.926 264.444 C 225.722 264.444,225.556 264.066,225.556 263.605 C 225.556 263.143,224.222 255.218,222.593 245.995 C 220.963 236.772,219.630 229.066,219.630 228.872 C 219.630 227.295,216.325 226.475,214.844 227.685 C 214.145 228.257,206.124 246.632,200.375 260.832 L 198.614 265.183 198.373 263.240 C 197.303 254.617,193.137 228.536,192.723 227.870 C 192.021 226.741,186.669 226.578,186.664 227.685 " stroke="none" fill="#186e6f" fill-rule="evenodd"></path><path id="path1" d="M226.112 101.221 C 223.816 102.522,224.071 101.792,205.750 159.259 C 196.235 189.102,187.874 215.310,187.170 217.500 L 185.889 221.481 158.642 221.481 C 132.265 221.481,131.401 221.503,131.575 222.170 C 131.674 222.549,135.840 228.924,140.832 236.337 L 149.908 249.815 148.638 251.667 C 147.939 252.685,147.200 253.769,146.996 254.074 C 146.707 254.505,146.579 254.523,146.425 254.153 C 145.746 252.529,140.871 249.101,109.407 228.123 C 90.217 215.329,74.153 204.475,73.710 204.004 C 71.037 201.162,71.238 196.203,74.138 193.466 C 74.816 192.826,90.787 182.010,109.630 169.430 C 128.472 156.850,144.280 146.207,144.757 145.779 C 149.980 141.097,144.605 132.234,137.937 134.534 C 136.199 135.133,66.791 181.394,64.569 183.434 C 56.350 190.981,55.915 205.150,63.652 213.299 C 67.206 217.043,136.301 262.951,138.871 263.277 L 140.781 263.519 136.131 270.358 C 133.574 274.119,131.481 277.494,131.481 277.858 C 131.481 278.483,132.460 278.519,149.586 278.519 L 167.690 278.519 165.512 285.386 C 162.950 293.460,162.883 294.602,164.815 297.278 C 167.275 300.686,173.932 300.356,176.055 296.720 C 176.454 296.037,177.978 291.704,179.442 287.091 L 182.104 278.704 228.089 278.610 C 253.381 278.558,274.066 278.391,274.056 278.239 C 274.046 278.087,271.722 274.546,268.892 270.370 C 264.941 264.543,263.848 262.679,264.187 262.351 C 264.431 262.117,280.130 251.572,299.074 238.918 C 318.019 226.263,334.210 215.336,335.056 214.634 C 343.947 207.254,343.955 190.768,335.071 183.131 C 332.483 180.906,263.627 135.072,262.063 134.533 C 256.391 132.579,251.180 138.674,253.907 144.074 C 254.673 145.593,254.808 145.687,290.370 169.435 C 309.213 182.019,325.109 192.752,325.695 193.287 C 328.930 196.240,328.924 201.492,325.682 204.493 C 324.542 205.548,256.937 250.678,256.265 250.832 C 254.269 251.290,255.221 249.553,264.600 235.621 L 274.116 221.485 237.278 221.391 L 200.439 221.296 212.087 184.815 C 238.393 102.421,236.745 107.740,236.492 106.050 C 235.776 101.281,230.413 98.785,226.112 101.221 M169.998 228.056 C 169.997 228.616,168.915 237.824,167.593 248.519 C 166.270 259.213,165.188 268.171,165.187 268.426 C 165.186 268.784,167.286 268.889,174.461 268.889 L 183.737 268.889 183.535 270.185 C 183.424 270.898,183.242 272.065,183.131 272.778 L 182.929 274.074 170.724 274.074 L 158.519 274.074 158.519 273.166 C 158.519 272.667,159.769 262.153,161.296 249.803 C 162.824 237.452,164.074 227.277,164.074 227.192 C 164.074 227.107,165.407 227.037,167.037 227.037 L 170.000 227.037 169.998 228.056 M192.723 227.870 C 193.137 228.536,197.303 254.617,198.373 263.240 L 198.614 265.183 200.375 260.832 C 206.124 246.632,214.145 228.257,214.844 227.685 C 216.325 226.475,219.630 227.295,219.630 228.872 C 219.630 229.066,220.963 236.772,222.593 245.995 C 224.222 255.218,225.556 263.143,225.556 263.605 C 225.556 264.066,225.722 264.444,225.926 264.444 C 226.130 264.444,226.296 264.257,226.296 264.027 C 226.296 262.761,240.165 228.622,240.984 227.870 C 241.964 226.972,247.037 226.591,247.037 227.416 C 247.037 227.624,242.850 237.999,237.732 250.471 C 232.614 262.943,228.346 273.356,228.248 273.611 C 227.884 274.551,222.640 274.218,222.412 273.241 C 222.304 272.782,220.800 264.337,219.069 254.473 C 217.338 244.609,215.869 236.487,215.805 236.422 C 215.741 236.358,212.113 244.762,207.743 255.097 L 199.798 273.889 197.008 273.996 L 194.217 274.103 190.439 251.218 C 188.361 238.631,186.662 228.042,186.664 227.685 C 186.669 226.578,192.021 226.741,192.723 227.870 " stroke="none" fill="#fbfbfb" fill-rule="evenodd"></path></g></svg>