<svg id="svg" version="1.1" xmlns="http://www.w3.org/2000/svg" xmlns:xlink="http://www.w3.org/1999/xlink" width="400" height="398.8899167437558" viewBox="0, 0, 400,398.8899167437558"><g id="svgg"><path id="path0" d="M0.000 199.417 L 0.000 398.833 200.000 398.833 L 400.000 398.833 400.000 199.417 L 400.000 0.000 200.000 0.000 L 0.000 0.000 0.000 199.417 M175.887 31.915 C 177.813 32.720,177.807 32.700,179.261 42.773 C 180.594 52.007,180.634 52.593,180.025 53.780 C 178.677 56.411,174.612 56.435,173.246 53.822 C 172.844 53.052,170.434 36.262,170.554 35.060 C 170.825 32.330,173.335 30.849,175.887 31.915 M203.158 51.750 C 204.828 57.067,206.251 61.477,206.322 61.551 C 206.393 61.624,206.502 60.837,206.564 59.801 C 206.626 58.764,206.786 56.492,206.918 54.750 C 207.051 53.008,207.274 50.008,207.415 48.083 C 207.555 46.158,207.719 43.983,207.778 43.250 L 207.887 41.917 208.514 43.833 C 208.858 44.887,209.478 46.837,209.890 48.167 C 210.303 49.496,211.127 52.121,211.721 54.000 C 212.315 55.879,213.153 58.542,213.582 59.917 C 214.012 61.292,214.652 63.317,215.005 64.417 C 215.358 65.517,216.185 68.142,216.844 70.250 C 217.503 72.358,218.063 74.108,218.089 74.138 C 218.115 74.168,220.298 71.318,222.939 67.804 C 225.581 64.291,230.208 58.135,233.223 54.125 C 238.260 47.424,239.173 46.306,238.939 47.125 C 238.857 47.412,238.783 48.018,238.241 52.833 C 238.091 54.163,237.871 56.038,237.752 57.000 C 237.633 57.962,237.554 58.770,237.577 58.795 C 237.599 58.820,239.622 56.177,242.071 52.923 C 246.775 46.671,246.876 46.549,246.745 47.283 C 246.700 47.540,246.477 49.400,246.251 51.417 C 246.025 53.433,245.612 57.071,245.332 59.500 C 245.052 61.929,244.635 65.567,244.405 67.583 C 244.174 69.600,243.842 72.487,243.666 74.000 C 243.490 75.512,243.266 77.454,243.169 78.314 C 243.071 79.174,242.881 80.824,242.746 81.980 C 242.611 83.136,242.500 84.207,242.500 84.360 C 242.500 84.647,243.044 84.346,251.583 79.334 C 253.508 78.204,256.246 76.605,257.667 75.780 C 259.087 74.956,261.225 73.704,262.417 72.999 C 265.104 71.410,266.425 70.667,266.564 70.667 C 266.623 70.667,265.634 72.223,264.366 74.125 C 263.099 76.027,262.005 77.678,261.937 77.793 C 261.808 78.009,262.863 77.410,270.145 73.135 C 272.471 71.769,274.391 70.674,274.413 70.701 C 274.434 70.728,272.843 73.175,270.878 76.139 C 268.914 79.103,267.339 81.561,267.380 81.602 C 267.420 81.642,268.307 81.751,269.351 81.842 C 283.101 83.049,293.575 92.994,297.778 108.833 C 299.122 113.899,299.353 114.819,299.661 116.353 C 302.172 128.826,301.043 139.776,296.263 149.307 C 291.196 159.411,283.646 167.107,275.405 170.570 C 273.849 171.223,273.639 171.324,270.457 172.940 L 268.498 173.936 268.957 174.375 L 269.417 174.815 279.667 174.598 L 289.917 174.381 294.333 172.585 C 302.877 169.109,303.916 168.711,303.962 168.898 C 303.987 169.000,303.781 169.752,303.505 170.570 C 303.228 171.388,303.037 172.092,303.080 172.135 C 303.123 172.178,305.124 171.417,307.527 170.444 C 309.930 169.470,311.920 168.698,311.950 168.728 C 312.054 168.832,310.543 173.108,309.587 175.417 C 306.544 182.765,302.892 188.556,298.948 192.287 C 297.755 193.415,297.710 193.483,298.213 193.388 C 298.508 193.332,299.575 193.120,300.583 192.918 C 302.722 192.488,302.618 192.461,302.264 193.347 C 301.886 194.291,301.646 194.290,306.276 193.361 C 308.554 192.904,310.444 192.557,310.477 192.589 C 310.756 192.863,307.234 198.916,305.238 201.592 C 298.042 211.238,289.050 216.040,278.125 216.072 C 275.948 216.078,274.167 216.127,274.167 216.181 C 274.166 216.381,277.963 219.963,279.333 221.055 C 286.999 227.168,296.405 230.894,306.208 231.702 C 307.469 231.806,308.500 231.949,308.500 232.020 C 308.500 232.091,307.981 232.922,307.347 233.866 C 303.208 240.027,296.231 245.267,288.417 248.083 C 287.225 248.513,286.227 248.887,286.198 248.915 C 286.169 248.943,286.629 249.817,287.219 250.858 C 290.363 256.401,293.278 263.006,295.184 268.902 C 296.010 271.456,296.092 271.003,294.070 275.052 C 285.553 292.106,272.709 305.136,259.250 310.377 C 250.629 313.734,229.582 318.882,208.667 322.750 C 201.519 324.072,196.191 325.010,190.667 325.920 C 187.046 326.516,183.677 327.078,183.181 327.168 C 181.782 327.424,181.781 327.424,182.167 326.667 C 182.354 326.300,182.459 326.000,182.401 326.000 C 182.262 326.000,176.357 326.956,175.109 327.181 C 174.083 327.366,173.842 327.312,174.122 326.962 C 175.213 325.598,176.771 319.127,177.403 313.333 C 178.801 300.523,177.375 291.872,172.210 281.833 C 170.329 278.176,166.797 272.694,166.379 272.782 C 166.295 272.799,164.723 273.424,162.885 274.170 L 159.544 275.527 159.339 277.055 C 157.740 288.967,152.000 302.882,146.575 308.000 L 145.957 308.583 146.056 306.856 C 146.233 303.777,145.785 295.268,145.077 288.250 C 144.702 284.525,144.219 280.497,144.138 280.416 C 144.099 280.377,143.096 280.505,141.909 280.701 C 137.379 281.450,130.259 281.208,125.583 280.147 C 113.002 277.291,104.888 268.566,103.262 256.144 C 103.065 254.640,102.950 254.238,102.595 253.817 C 102.083 253.208,102.060 252.667,102.507 251.684 C 102.690 251.280,102.819 250.942,102.795 250.931 C 100.172 249.819,95.563 245.000,93.456 241.167 C 90.867 236.457,89.067 228.108,89.363 222.179 L 89.417 221.107 91.726 220.641 C 94.223 220.138,96.943 219.447,99.587 218.644 L 101.257 218.137 101.286 216.527 C 101.415 209.307,106.352 203.424,113.771 201.650 C 119.901 200.184,122.594 204.343,118.535 209.006 L 117.750 209.908 118.565 209.329 C 125.885 204.127,131.223 195.744,130.344 190.828 C 129.815 187.870,128.139 187.210,123.333 188.068 C 121.876 188.328,118.419 188.736,112.583 189.335 C 102.446 190.376,96.795 191.435,92.976 193.010 C 91.732 193.523,91.668 193.512,92.169 192.876 C 92.621 192.302,92.556 192.280,91.229 192.569 C 89.510 192.944,86.953 193.298,85.083 193.421 L 83.417 193.531 85.083 192.676 C 95.238 187.468,103.206 174.673,106.573 158.167 C 106.960 156.268,107.496 153.107,107.441 153.052 C 107.378 152.989,106.201 154.853,97.500 168.801 C 93.604 175.045,90.371 180.157,90.315 180.161 C 89.983 180.180,87.938 174.843,87.182 171.983 C 83.568 158.331,86.186 144.894,94.446 134.693 C 95.352 133.574,95.374 133.654,94.042 133.182 C 81.160 128.620,71.236 114.499,69.904 98.837 L 69.784 97.424 70.823 98.337 C 78.022 104.660,84.540 107.836,90.309 107.832 C 93.249 107.830,95.147 107.223,99.833 104.787 C 101.834 103.747,102.154 103.577,106.276 101.354 C 116.290 95.955,123.434 93.168,130.333 91.967 C 133.322 91.447,139.532 91.740,141.944 92.514 C 142.390 92.657,145.373 93.160,145.439 93.103 C 145.451 93.092,145.250 92.521,144.992 91.833 C 144.734 91.146,144.061 89.308,143.497 87.750 C 142.933 86.192,142.072 83.829,141.585 82.500 C 140.297 78.988,140.303 79.176,141.508 80.147 C 143.765 81.965,150.158 85.231,150.598 84.791 C 150.621 84.767,150.383 83.811,150.067 82.666 C 149.564 80.838,149.085 79.059,148.235 75.867 C 148.106 75.381,148.000 74.949,148.000 74.907 C 148.000 74.864,148.413 75.166,148.918 75.577 C 155.114 80.624,161.771 82.355,170.107 81.088 C 176.423 80.128,182.312 80.668,186.628 82.602 C 187.153 82.837,188.352 83.248,189.291 83.514 C 191.092 84.025,193.565 84.951,194.849 85.595 L 195.615 85.979 195.323 85.115 C 195.163 84.639,194.579 82.956,194.026 81.375 C 192.859 78.040,192.739 78.259,195.365 78.925 C 196.286 79.158,197.070 79.319,197.107 79.282 C 197.185 79.204,197.377 76.954,197.751 71.750 C 197.896 69.733,198.124 66.583,198.259 64.750 C 198.393 62.917,198.615 59.879,198.752 58.000 C 198.889 56.121,199.110 53.083,199.244 51.250 C 199.378 49.417,199.572 46.679,199.675 45.167 C 199.855 42.540,199.938 41.873,200.065 42.018 C 200.097 42.054,201.489 46.433,203.158 51.750 M306.250 63.150 C 308.400 64.150,309.359 66.872,308.236 68.790 C 306.971 70.952,294.076 83.022,291.781 84.193 C 289.217 85.501,286.477 83.930,286.211 80.999 C 286.077 79.521,286.484 78.802,288.351 77.227 C 292.449 73.768,294.256 72.099,298.479 67.869 C 303.806 62.534,304.291 62.240,306.250 63.150 M72.517 78.359 C 72.828 78.465,74.096 79.240,75.333 80.082 C 77.527 81.573,80.099 83.316,85.307 86.837 C 86.713 87.789,88.075 88.822,88.332 89.134 C 89.930 91.073,89.025 94.410,86.630 95.408 C 85.167 96.018,84.559 95.757,79.624 92.390 C 77.630 91.030,74.714 89.054,73.144 88.000 C 68.139 84.638,67.915 84.395,67.919 82.333 C 67.925 79.515,70.180 77.566,72.517 78.359 M259.583 101.766 C 249.173 103.233,245.898 106.190,242.350 117.333 C 239.395 126.610,239.032 127.543,237.582 129.588 C 235.843 132.039,232.483 134.488,229.130 135.746 C 228.485 135.988,228.372 136.090,228.500 136.312 C 228.909 137.024,228.893 137.022,230.095 136.573 C 230.730 136.336,231.438 136.081,231.667 136.006 C 231.896 135.931,233.096 135.441,234.333 134.918 C 243.303 131.124,249.634 126.769,252.594 122.355 C 253.248 121.381,253.323 121.319,253.407 121.683 C 253.458 121.903,253.611 122.571,253.747 123.167 C 255.050 128.867,252.517 134.894,247.443 138.167 C 245.647 139.325,245.649 139.333,247.757 139.333 C 251.998 139.333,259.178 140.534,260.662 141.491 C 260.955 141.680,261.178 141.594,258.250 142.418 C 257.058 142.753,255.858 143.096,255.583 143.179 C 253.699 143.752,247.557 145.501,246.764 145.691 C 244.634 146.202,245.503 146.215,250.417 145.747 C 252.627 145.536,254.179 145.394,260.042 144.865 C 260.844 144.793,261.500 144.761,261.500 144.795 C 261.500 145.097,260.175 147.596,259.550 148.472 C 256.821 152.297,252.696 154.582,247.167 155.335 C 246.021 155.491,245.196 155.661,245.333 155.713 C 245.471 155.765,246.146 155.972,246.833 156.173 C 247.521 156.374,248.646 156.712,249.333 156.925 C 250.021 157.138,251.351 157.545,252.290 157.829 L 253.997 158.347 253.457 158.812 C 251.561 160.448,247.112 162.667,245.729 162.667 C 245.293 162.667,245.505 162.924,246.677 163.818 L 247.854 164.715 250.322 164.014 C 263.491 160.276,272.292 153.838,274.492 146.333 C 275.627 142.462,276.469 133.554,276.279 127.418 C 275.729 109.591,269.707 100.340,259.583 101.766 M347.287 161.091 C 349.899 162.393,350.281 166.455,347.917 167.782 C 345.767 168.990,331.718 171.330,326.241 171.393 C 322.873 171.432,321.318 169.571,322.248 166.614 C 322.931 164.440,323.834 163.951,327.833 163.586 C 333.448 163.074,340.618 161.903,344.083 160.930 C 345.393 160.563,346.320 160.610,347.287 161.091 M116.171 177.114 C 115.761 177.739,115.045 178.700,114.579 179.250 C 114.114 179.800,113.682 180.336,113.618 180.441 C 113.547 180.557,114.070 180.485,114.959 180.256 C 115.761 180.050,116.621 179.832,116.870 179.772 C 117.259 179.678,117.311 179.597,117.235 179.206 C 117.187 178.955,117.095 178.126,117.032 177.364 L 116.917 175.977 116.171 177.114 M62.766 196.412 C 66.905 197.641,65.447 203.677,60.912 204.089 C 57.009 204.443,52.083 205.282,47.689 206.342 C 44.671 207.070,44.110 207.120,43.203 206.741 C 40.249 205.507,39.896 201.066,42.641 199.684 C 44.389 198.803,53.363 197.108,60.250 196.357 C 60.983 196.277,61.663 196.201,61.761 196.189 C 61.859 196.177,62.311 196.277,62.766 196.412 M329.097 289.412 C 333.306 291.966,337.063 294.268,337.446 294.527 C 340.828 296.818,337.976 302.694,334.125 301.370 C 333.644 301.204,331.375 299.917,329.083 298.508 C 326.792 297.100,323.427 295.050,321.607 293.953 C 319.787 292.856,318.032 291.725,317.706 291.439 C 315.114 289.163,317.068 284.477,320.514 284.706 C 321.398 284.764,321.829 285.001,329.097 289.412 M103.061 318.985 C 105.878 320.923,105.642 322.992,102.200 326.559 C 100.079 328.757,97.291 331.821,94.913 334.568 C 91.546 338.457,85.963 335.135,88.273 330.617 C 89.037 329.123,98.072 319.347,99.333 318.649 C 100.279 318.126,102.045 318.286,103.061 318.985 M230.751 328.311 C 232.178 328.959,232.929 330.246,233.182 332.476 C 233.272 333.268,233.491 335.154,233.668 336.667 C 235.298 350.591,235.322 349.949,233.108 351.318 C 230.153 353.144,227.586 351.227,227.077 346.812 C 226.946 345.678,226.612 342.762,226.334 340.333 C 226.057 337.904,225.710 334.873,225.564 333.596 C 225.263 330.972,225.335 330.473,226.162 329.473 C 227.250 328.158,229.282 327.643,230.751 328.311 M282.333 380.667 L 282.333 381.333 283.000 381.333 L 283.667 381.333 283.667 385.167 L 283.667 389.000 281.083 389.000 L 278.500 389.000 278.500 388.333 L 278.500 387.667 277.833 387.667 L 277.167 387.667 277.167 386.500 L 277.167 385.333 277.833 385.333 L 278.500 385.333 278.500 384.667 L 278.500 384.000 279.833 384.000 L 281.167 384.000 281.167 382.583 L 281.167 381.167 278.417 381.167 L 275.667 381.167 275.667 385.833 L 275.667 390.500 279.667 390.500 L 283.667 390.500 283.667 391.083 L 283.667 391.667 279.167 391.667 L 274.667 391.667 274.667 391.000 L 274.667 390.333 274.000 390.333 L 273.333 390.333 273.333 385.833 L 273.333 381.333 274.000 381.333 L 274.667 381.333 274.667 380.667 L 274.667 380.000 278.500 380.000 L 282.333 380.000 282.333 380.667 M298.000 381.333 L 298.000 382.667 300.000 382.667 L 302.000 382.667 302.000 383.333 C 302.000 383.984,302.014 384.000,302.583 384.000 L 303.167 384.000 303.167 387.167 L 303.167 390.333 302.583 390.333 C 302.014 390.333,302.000 390.349,302.000 391.000 L 302.000 391.667 298.833 391.667 L 295.667 391.667 295.667 385.833 L 295.667 380.000 296.833 380.000 L 298.000 380.000 298.000 381.333 M313.667 385.833 L 313.667 391.667 310.583 391.667 L 307.500 391.667 307.500 391.000 L 307.500 390.333 306.750 390.333 L 306.000 390.333 306.000 387.167 L 306.000 384.000 306.750 384.000 L 307.500 384.000 307.500 383.333 L 307.500 382.667 309.417 382.667 L 311.333 382.667 311.333 381.333 L 311.333 380.000 312.500 380.000 L 313.667 380.000 313.667 385.833 M333.500 380.667 L 333.500 381.333 334.167 381.333 L 334.833 381.333 334.833 383.250 L 334.833 385.167 334.160 385.167 L 333.487 385.167 333.535 386.542 L 333.583 387.917 334.208 387.968 L 334.833 388.020 334.833 389.843 L 334.833 391.667 333.583 391.667 L 332.333 391.667 332.333 389.667 L 332.333 387.667 331.667 387.667 C 331.016 387.667,331.000 387.653,331.000 387.083 C 331.000 386.503,330.996 386.500,330.250 386.500 L 329.500 386.500 329.500 389.083 L 329.500 391.667 328.250 391.667 L 327.000 391.667 327.000 385.833 L 327.000 380.000 330.250 380.000 L 333.500 380.000 333.500 380.667 M345.167 380.583 L 345.167 381.167 343.917 381.167 L 342.667 381.167 342.667 386.417 L 342.667 391.667 341.417 391.667 L 340.167 391.667 340.167 386.417 L 340.167 381.167 338.833 381.167 L 337.500 381.167 337.500 380.583 L 337.500 380.000 341.333 380.000 L 345.167 380.000 345.167 380.583 M350.539 383.958 L 350.583 387.917 351.208 387.968 L 351.833 388.020 351.833 389.843 L 351.833 391.667 350.583 391.667 L 349.333 391.667 349.333 389.667 L 349.333 387.667 348.750 387.667 L 348.167 387.667 348.167 383.833 L 348.167 380.000 349.330 380.000 L 350.494 380.000 350.539 383.958 M357.167 383.833 L 357.167 387.667 356.500 387.667 L 355.833 387.667 355.833 389.667 L 355.833 391.667 354.667 391.667 L 353.500 391.667 353.500 389.844 L 353.500 388.021 354.042 387.969 L 354.583 387.917 354.628 383.958 L 354.673 380.000 355.920 380.000 L 357.167 380.000 357.167 383.833 M365.000 380.667 L 365.000 381.333 365.667 381.333 L 366.333 381.333 366.333 385.833 L 366.333 390.333 365.667 390.333 L 365.000 390.333 365.000 391.000 L 365.000 391.667 362.417 391.667 L 359.833 391.667 359.833 391.000 L 359.833 390.333 359.167 390.333 L 358.500 390.333 358.500 385.833 L 358.500 381.333 359.167 381.333 L 359.833 381.333 359.833 380.667 L 359.833 380.000 362.417 380.000 L 365.000 380.000 365.000 380.667 M375.500 380.667 L 375.500 381.333 376.167 381.333 L 376.833 381.333 376.833 383.250 L 376.833 385.167 376.160 385.167 L 375.487 385.167 375.535 386.542 L 375.583 387.917 376.208 387.968 L 376.833 388.020 376.833 389.843 L 376.833 391.667 375.583 391.667 L 374.333 391.667 374.333 389.667 L 374.333 387.667 373.667 387.667 C 373.016 387.667,373.000 387.653,373.000 387.083 C 373.000 386.503,372.996 386.500,372.250 386.500 L 371.500 386.500 371.500 389.083 L 371.500 391.667 370.333 391.667 L 369.167 391.667 369.167 385.833 L 369.167 380.000 372.333 380.000 L 375.500 380.000 375.500 380.667 M382.000 382.667 L 382.000 385.333 382.750 385.333 L 383.500 385.333 383.500 384.000 L 383.500 382.667 384.167 382.667 L 384.833 382.667 384.833 381.333 L 384.833 380.000 386.000 380.000 L 387.167 380.000 387.167 381.167 L 387.167 382.333 386.500 382.333 L 385.833 382.333 385.833 383.750 L 385.833 385.167 385.250 385.167 C 384.670 385.167,384.667 385.171,384.667 385.917 C 384.667 386.661,384.671 386.667,385.243 386.667 L 385.819 386.667 385.868 387.958 L 385.917 389.250 386.542 389.302 L 387.167 389.353 387.167 390.510 L 387.167 391.667 386.000 391.667 L 384.833 391.667 384.833 390.333 L 384.833 389.000 384.167 389.000 L 383.500 389.000 383.500 387.750 L 383.500 386.500 382.750 386.500 L 382.000 386.500 382.000 389.083 L 382.000 391.667 380.833 391.667 L 379.667 391.667 379.667 385.833 L 379.667 380.000 380.833 380.000 L 382.000 380.000 382.000 382.667 M396.500 380.667 L 396.500 381.333 397.167 381.333 C 397.796 381.333,397.833 381.361,397.833 381.833 L 397.833 382.333 396.583 382.333 L 395.333 382.333 395.333 381.750 L 395.333 381.167 393.917 381.167 L 392.500 381.167 392.500 382.583 L 392.500 384.000 393.157 384.000 C 393.795 384.000,393.815 384.017,393.865 384.625 C 393.914 385.216,393.951 385.253,394.542 385.302 C 395.149 385.352,395.167 385.372,395.167 386.010 C 395.167 386.663,395.170 386.667,395.823 386.667 C 396.462 386.667,396.481 386.684,396.532 387.292 C 396.581 387.883,396.617 387.919,397.208 387.968 L 397.833 388.020 397.833 389.177 L 397.833 390.333 397.167 390.333 L 396.500 390.333 396.500 391.000 L 396.500 391.667 394.000 391.667 L 391.500 391.667 391.500 391.000 L 391.500 390.333 390.833 390.333 C 390.204 390.333,390.167 390.306,390.167 389.833 L 390.167 389.333 391.333 389.333 L 392.500 389.333 392.500 389.917 L 392.500 390.500 393.917 390.500 L 395.333 390.500 395.333 389.083 L 395.333 387.667 394.750 387.667 C 394.194 387.667,394.167 387.639,394.167 387.083 C 394.167 386.514,394.151 386.500,393.500 386.500 L 392.833 386.500 392.833 385.833 C 392.833 385.168,392.832 385.167,392.176 385.167 C 391.522 385.167,391.519 385.163,391.468 384.458 C 391.418 383.771,391.398 383.748,390.792 383.698 L 390.167 383.647 390.167 382.490 L 390.167 381.333 390.833 381.333 L 391.500 381.333 391.500 380.667 L 391.500 380.000 394.000 380.000 L 396.500 380.000 396.500 380.667 M329.500 383.250 L 329.500 385.333 330.917 385.333 L 332.333 385.333 332.333 383.250 L 332.333 381.167 330.917 381.167 L 329.500 381.167 329.500 383.250 M361.000 385.833 L 361.000 390.500 362.417 390.500 L 363.833 390.500 363.833 385.833 L 363.833 381.167 362.417 381.167 L 361.000 381.167 361.000 385.833 M371.572 381.386 C 371.526 381.506,371.510 382.425,371.536 383.427 L 371.583 385.250 372.958 385.298 L 374.333 385.347 374.333 383.257 L 374.333 381.167 372.995 381.167 C 372.043 381.167,371.632 381.230,371.572 381.386 M291.333 383.333 L 291.333 384.000 292.083 384.000 L 292.833 384.000 292.833 387.833 L 292.833 391.667 291.583 391.667 L 290.333 391.667 290.333 387.667 L 290.333 383.667 288.917 383.667 L 287.500 383.667 287.500 387.667 L 287.500 391.667 286.250 391.667 L 285.000 391.667 285.000 387.167 L 285.000 382.667 288.167 382.667 L 291.333 382.667 291.333 383.333 M323.000 383.333 L 323.000 384.000 323.667 384.000 L 324.333 384.000 324.333 387.833 L 324.333 391.667 321.083 391.667 L 317.833 391.667 317.833 391.000 C 317.833 390.349,317.819 390.333,317.250 390.333 L 316.667 390.333 316.667 389.167 L 316.667 388.000 317.250 388.000 C 317.819 388.000,317.833 387.984,317.833 387.333 L 317.833 386.667 319.833 386.667 L 321.833 386.667 321.833 385.167 L 321.833 383.667 319.833 383.667 L 317.833 383.667 317.833 383.167 L 317.833 382.667 320.417 382.667 L 323.000 382.667 323.000 383.333 M298.111 383.778 C 298.050 383.839,298.000 385.376,298.000 387.194 L 298.000 390.500 299.417 390.500 L 300.833 390.500 300.833 387.083 L 300.833 383.667 299.528 383.667 C 298.810 383.667,298.172 383.717,298.111 383.778 M308.500 387.083 L 308.500 390.500 309.917 390.500 L 311.333 390.500 311.333 387.083 L 311.333 383.667 309.917 383.667 L 308.500 383.667 308.500 387.083 M353.167 385.833 L 353.167 387.667 352.583 387.667 L 352.000 387.667 352.000 385.833 L 352.000 384.000 352.583 384.000 L 353.167 384.000 353.167 385.833 M279.702 386.542 L 279.750 387.917 280.417 387.917 L 281.083 387.917 281.132 386.542 L 281.180 385.167 280.417 385.167 L 279.653 385.167 279.702 386.542 M319.000 389.083 L 319.000 390.500 320.417 390.500 L 321.833 390.500 321.833 389.083 L 321.833 387.667 320.417 387.667 L 319.000 387.667 319.000 389.083 " stroke="none" fill="#4a98ca" fill-rule="evenodd"></path><path id="path1" d="M173.332 31.648 C 171.665 32.187,170.724 33.342,170.554 35.060 C 170.434 36.262,172.844 53.052,173.246 53.822 C 174.955 57.090,180.013 56.065,180.442 52.364 C 180.555 51.388,178.099 34.175,177.751 33.501 C 177.075 32.195,174.709 31.202,173.332 31.648 M207.773 43.333 C 207.635 45.108,207.262 50.128,206.913 54.917 C 206.766 56.933,206.581 59.406,206.502 60.411 L 206.358 62.238 207.085 64.577 C 207.485 65.864,208.349 68.604,209.004 70.667 C 209.660 72.729,210.258 74.642,210.333 74.917 C 210.717 76.318,212.380 81.434,212.489 81.550 C 212.559 81.623,213.860 80.040,215.380 78.033 L 218.145 74.384 216.816 70.150 C 216.085 67.822,215.234 65.129,214.926 64.167 C 214.617 63.204,214.012 61.292,213.583 59.917 C 213.153 58.542,212.315 55.879,211.721 54.000 C 211.127 52.121,210.303 49.496,209.890 48.167 C 209.478 46.837,208.858 44.887,208.512 43.833 L 207.884 41.917 207.773 43.333 M245.512 48.361 C 237.391 59.057,237.393 59.054,237.279 60.102 C 237.188 60.940,236.748 64.811,236.002 71.333 C 235.902 72.204,235.670 74.192,235.485 75.750 C 235.300 77.308,235.078 79.258,234.991 80.083 C 234.905 80.908,234.797 81.771,234.752 82.000 C 234.707 82.229,234.592 83.204,234.496 84.167 C 234.400 85.129,234.226 86.760,234.109 87.792 C 233.854 90.028,233.670 89.982,236.392 88.363 C 237.597 87.646,239.455 86.547,240.520 85.922 L 242.456 84.784 242.648 82.934 C 242.753 81.916,242.945 80.183,243.075 79.083 C 243.342 76.824,243.608 74.529,244.337 68.167 C 244.964 62.691,245.716 56.163,246.322 50.917 C 246.576 48.717,246.764 46.891,246.739 46.861 C 246.714 46.830,246.162 47.505,245.512 48.361 M303.563 63.073 C 303.276 63.198,300.989 65.356,298.479 67.869 C 294.256 72.099,292.449 73.768,288.351 77.227 C 286.484 78.802,286.077 79.521,286.211 80.999 C 286.477 83.930,289.217 85.501,291.781 84.193 C 294.076 83.022,306.971 70.952,308.236 68.790 C 309.974 65.820,306.636 61.736,303.563 63.073 M268.750 73.936 C 265.725 75.720,262.864 77.397,262.393 77.664 C 261.641 78.090,259.116 81.358,259.366 81.584 C 259.394 81.609,260.312 81.715,261.407 81.821 C 275.348 83.165,285.836 93.123,289.908 108.879 C 290.221 110.091,290.666 111.796,290.897 112.667 C 294.381 125.809,293.598 138.521,288.678 148.709 C 283.654 159.113,275.743 167.214,267.167 170.740 C 265.159 171.565,260.699 173.891,260.778 174.071 C 261.119 174.850,261.561 174.921,265.556 174.833 L 269.361 174.750 268.928 174.344 L 268.495 173.937 270.456 172.941 C 273.640 171.324,273.849 171.223,275.405 170.570 C 283.646 167.107,291.196 159.411,296.263 149.307 C 301.043 139.776,302.172 128.826,299.661 116.353 C 299.353 114.819,299.122 113.899,297.778 108.833 C 293.575 92.994,283.101 83.049,269.351 81.842 C 268.307 81.751,267.421 81.643,267.381 81.603 C 267.317 81.539,269.963 77.457,273.364 72.375 C 273.993 71.435,274.450 70.673,274.379 70.680 C 274.308 70.688,271.775 72.153,268.750 73.936 M148.000 74.918 C 148.000 74.966,148.157 75.586,148.349 76.295 C 148.541 77.003,148.807 77.996,148.940 78.500 C 150.760 85.400,150.510 84.871,152.114 85.221 C 155.503 85.963,157.947 85.969,163.167 85.248 C 175.297 83.572,183.505 86.877,189.456 95.833 C 190.157 96.888,190.787 97.817,190.856 97.899 C 190.926 97.982,190.766 97.457,190.503 96.733 C 190.239 96.009,189.676 94.442,189.253 93.250 C 188.829 92.058,188.304 90.596,188.086 90.000 C 186.663 86.111,185.505 82.773,185.559 82.719 C 185.594 82.684,185.980 82.735,186.417 82.833 C 187.624 83.104,187.488 82.931,186.048 82.368 C 181.481 80.579,176.230 80.158,170.107 81.088 C 161.771 82.355,155.114 80.624,148.918 75.577 C 148.413 75.166,148.000 74.869,148.000 74.918 M70.348 78.398 C 68.887 78.926,67.923 80.487,67.919 82.333 C 67.915 84.395,68.139 84.638,73.144 88.000 C 74.714 89.054,77.630 91.030,79.624 92.390 C 84.559 95.757,85.167 96.018,86.630 95.408 C 89.025 94.410,89.930 91.073,88.332 89.134 C 88.075 88.822,86.713 87.789,85.307 86.837 C 80.099 83.316,77.527 81.573,75.333 80.082 C 72.443 78.116,71.762 77.886,70.348 78.398 M194.030 81.375 C 194.586 82.956,195.151 84.612,195.286 85.054 C 195.505 85.769,196.208 86.496,196.683 86.499 C 196.738 86.500,196.831 85.806,196.891 84.958 C 196.950 84.110,197.071 82.555,197.160 81.503 C 197.351 79.244,197.502 79.462,195.386 78.928 C 192.735 78.259,192.858 78.039,194.030 81.375 M143.667 93.014 C 143.896 93.115,144.411 93.345,144.812 93.524 C 145.598 93.874,145.731 93.861,145.572 93.447 C 145.452 93.135,145.219 93.053,144.083 92.924 C 143.382 92.844,143.316 92.858,143.667 93.014 M344.083 160.930 C 340.618 161.903,333.448 163.074,327.833 163.586 C 323.357 163.994,321.711 165.320,322.041 168.249 C 322.432 171.721,324.588 172.082,335.417 170.486 C 344.705 169.117,348.195 168.116,349.038 166.579 C 350.809 163.349,347.778 159.894,344.083 160.930 M307.334 170.503 L 302.918 172.307 302.154 174.195 C 300.905 177.286,300.816 177.487,299.619 179.913 C 296.059 187.132,292.042 192.178,287.706 194.875 C 287.006 195.310,286.530 195.667,286.648 195.667 C 286.888 195.667,296.904 193.700,297.392 193.557 C 298.697 193.175,302.970 188.037,305.428 183.893 C 307.623 180.194,312.000 170.094,312.000 168.730 C 312.000 168.606,311.691 168.723,307.334 170.503 M306.034 193.392 L 301.817 194.251 301.140 195.574 C 295.788 206.032,286.553 213.496,276.417 215.557 C 273.730 216.104,274.323 216.242,278.812 216.117 C 289.407 215.821,298.249 210.961,305.238 201.592 C 307.605 198.418,310.993 192.433,310.375 192.517 C 310.306 192.526,308.353 192.920,306.034 193.392 M60.250 196.357 C 53.363 197.108,44.389 198.803,42.641 199.684 C 39.896 201.066,40.249 205.507,43.203 206.741 C 44.110 207.120,44.671 207.070,47.689 206.342 C 52.083 205.282,57.009 204.443,60.912 204.089 C 64.021 203.806,65.873 201.209,64.910 198.480 C 64.470 197.234,62.848 196.053,61.761 196.189 C 61.663 196.201,60.983 196.277,60.250 196.357 M266.927 216.920 C 273.581 224.710,287.091 231.005,298.801 231.772 C 300.783 231.902,300.759 231.857,299.708 233.449 C 295.496 239.829,288.535 245.147,280.667 247.997 C 279.612 248.379,278.621 248.742,278.464 248.804 C 278.208 248.905,278.232 249.004,278.689 249.736 C 281.542 254.299,286.181 264.877,287.661 270.190 L 287.969 271.297 286.855 273.607 C 278.145 291.678,264.724 305.434,250.795 310.572 C 239.024 314.913,212.805 320.889,185.667 325.417 C 182.397 325.963,182.555 325.906,182.160 326.679 C 181.781 327.423,181.783 327.424,183.181 327.168 C 183.677 327.078,187.046 326.516,190.667 325.920 C 196.191 325.010,201.519 324.072,208.667 322.750 C 229.582 318.882,250.629 313.734,259.250 310.377 C 272.709 305.136,285.553 292.106,294.070 275.052 C 296.092 271.003,296.010 271.456,295.184 268.902 C 293.278 263.006,290.363 256.401,287.219 250.858 C 286.629 249.817,286.169 248.943,286.198 248.915 C 286.227 248.887,287.225 248.513,288.417 248.083 C 296.231 245.267,303.208 240.027,307.347 233.866 C 307.981 232.922,308.500 232.091,308.500 232.020 C 308.500 231.949,307.469 231.806,306.208 231.702 C 294.738 230.757,283.952 225.874,275.961 218.008 L 274.005 216.083 270.109 216.083 L 266.212 216.083 266.927 216.920 M156.335 238.542 C 152.177 244.232,147.258 248.807,142.043 251.833 C 139.810 253.130,139.936 252.422,140.909 258.186 C 144.367 278.665,146.511 298.935,146.056 306.854 L 145.957 308.583 146.575 308.000 C 151.282 303.560,156.399 292.234,158.569 281.453 C 161.299 267.888,161.191 243.393,158.375 237.847 C 157.748 236.612,157.745 236.613,156.335 238.542 M318.736 285.073 C 316.291 286.311,315.741 289.714,317.706 291.439 C 318.032 291.725,319.787 292.856,321.607 293.953 C 323.427 295.050,326.792 297.100,329.083 298.508 C 331.375 299.917,333.644 301.204,334.125 301.370 C 337.976 302.694,340.828 296.818,337.446 294.527 C 337.063 294.268,333.306 291.966,329.097 289.412 C 320.393 284.129,320.506 284.177,318.736 285.073 M99.333 318.649 C 98.072 319.347,89.037 329.123,88.273 330.617 C 85.963 335.135,91.546 338.457,94.913 334.568 C 97.291 331.821,100.079 328.757,102.200 326.559 C 105.234 323.415,105.613 322.225,104.246 320.137 C 103.230 318.586,100.786 317.846,99.333 318.649 M227.532 328.432 C 225.577 329.406,225.197 330.401,225.564 333.596 C 225.710 334.873,226.057 337.904,226.334 340.333 C 226.612 342.762,226.946 345.678,227.077 346.812 C 227.586 351.227,230.153 353.144,233.108 351.318 C 235.322 349.949,235.298 350.591,233.668 336.667 C 233.491 335.154,233.272 333.268,233.182 332.476 C 232.767 328.812,230.305 327.050,227.532 328.432 M274.667 380.667 L 274.667 381.333 274.000 381.333 L 273.333 381.333 273.333 385.833 L 273.333 390.333 274.000 390.333 L 274.667 390.333 274.667 391.000 L 274.667 391.667 279.167 391.667 L 283.667 391.667 283.667 391.083 L 283.667 390.500 279.667 390.500 L 275.667 390.500 275.667 385.833 L 275.667 381.167 278.417 381.167 L 281.167 381.167 281.167 382.583 L 281.167 384.000 279.833 384.000 L 278.500 384.000 278.500 384.667 L 278.500 385.333 277.833 385.333 L 277.167 385.333 277.167 386.500 L 277.167 387.667 277.833 387.667 L 278.500 387.667 278.500 388.333 L 278.500 389.000 281.083 389.000 L 283.667 389.000 283.667 385.167 L 283.667 381.333 283.000 381.333 L 282.333 381.333 282.333 380.667 L 282.333 380.000 278.500 380.000 L 274.667 380.000 274.667 380.667 M295.667 385.833 L 295.667 391.667 298.833 391.667 L 302.000 391.667 302.000 391.000 C 302.000 390.349,302.014 390.333,302.583 390.333 L 303.167 390.333 303.167 387.167 L 303.167 384.000 302.583 384.000 C 302.014 384.000,302.000 383.984,302.000 383.333 L 302.000 382.667 300.000 382.667 L 298.000 382.667 298.000 381.333 L 298.000 380.000 296.833 380.000 L 295.667 380.000 295.667 385.833 M311.333 381.333 L 311.333 382.667 309.417 382.667 L 307.500 382.667 307.500 383.333 L 307.500 384.000 306.750 384.000 L 306.000 384.000 306.000 387.167 L 306.000 390.333 306.750 390.333 L 307.500 390.333 307.500 391.000 L 307.500 391.667 310.583 391.667 L 313.667 391.667 313.667 385.833 L 313.667 380.000 312.500 380.000 L 311.333 380.000 311.333 381.333 M327.000 385.833 L 327.000 391.667 328.250 391.667 L 329.500 391.667 329.500 389.083 L 329.500 386.500 330.250 386.500 C 330.996 386.500,331.000 386.503,331.000 387.083 C 331.000 387.653,331.016 387.667,331.667 387.667 L 332.333 387.667 332.333 389.667 L 332.333 391.667 333.583 391.667 L 334.833 391.667 334.833 389.843 L 334.833 388.020 334.208 387.968 L 333.583 387.917 333.535 386.542 L 333.487 385.167 334.160 385.167 L 334.833 385.167 334.833 383.250 L 334.833 381.333 334.167 381.333 L 333.500 381.333 333.500 380.667 L 333.500 380.000 330.250 380.000 L 327.000 380.000 327.000 385.833 M337.500 380.583 L 337.500 381.167 338.833 381.167 L 340.167 381.167 340.167 386.417 L 340.167 391.667 341.417 391.667 L 342.667 391.667 342.667 386.417 L 342.667 381.167 343.917 381.167 L 345.167 381.167 345.167 380.583 L 345.167 380.000 341.333 380.000 L 337.500 380.000 337.500 380.583 M348.167 383.833 L 348.167 387.667 348.750 387.667 L 349.333 387.667 349.333 389.667 L 349.333 391.667 350.583 391.667 L 351.833 391.667 351.833 389.843 L 351.833 388.020 351.208 387.968 L 350.583 387.917 350.539 383.958 L 350.494 380.000 349.330 380.000 L 348.167 380.000 348.167 383.833 M354.628 383.958 L 354.583 387.917 354.042 387.969 L 353.500 388.021 353.500 389.844 L 353.500 391.667 354.667 391.667 L 355.833 391.667 355.833 389.667 L 355.833 387.667 356.500 387.667 L 357.167 387.667 357.167 383.833 L 357.167 380.000 355.920 380.000 L 354.673 380.000 354.628 383.958 M359.833 380.667 L 359.833 381.333 359.167 381.333 L 358.500 381.333 358.500 385.833 L 358.500 390.333 359.167 390.333 L 359.833 390.333 359.833 391.000 L 359.833 391.667 362.417 391.667 L 365.000 391.667 365.000 391.000 L 365.000 390.333 365.667 390.333 L 366.333 390.333 366.333 385.833 L 366.333 381.333 365.667 381.333 L 365.000 381.333 365.000 380.667 L 365.000 380.000 362.417 380.000 L 359.833 380.000 359.833 380.667 M369.167 385.833 L 369.167 391.667 370.333 391.667 L 371.500 391.667 371.500 389.083 L 371.500 386.500 372.250 386.500 C 372.996 386.500,373.000 386.503,373.000 387.083 C 373.000 387.653,373.016 387.667,373.667 387.667 L 374.333 387.667 374.333 389.667 L 374.333 391.667 375.583 391.667 L 376.833 391.667 376.833 389.843 L 376.833 388.020 376.208 387.968 L 375.583 387.917 375.535 386.542 L 375.487 385.167 376.160 385.167 L 376.833 385.167 376.833 383.250 L 376.833 381.333 376.167 381.333 L 375.500 381.333 375.500 380.667 L 375.500 380.000 372.333 380.000 L 369.167 380.000 369.167 385.833 M379.667 385.833 L 379.667 391.667 380.833 391.667 L 382.000 391.667 382.000 389.083 L 382.000 386.500 382.750 386.500 L 383.500 386.500 383.500 387.750 L 383.500 389.000 384.167 389.000 L 384.833 389.000 384.833 390.333 L 384.833 391.667 386.000 391.667 L 387.167 391.667 387.167 390.510 L 387.167 389.353 386.542 389.302 L 385.917 389.250 385.868 387.958 L 385.819 386.667 385.243 386.667 C 384.671 386.667,384.667 386.661,384.667 385.917 C 384.667 385.171,384.670 385.167,385.250 385.167 L 385.833 385.167 385.833 383.750 L 385.833 382.333 386.500 382.333 L 387.167 382.333 387.167 381.167 L 387.167 380.000 386.000 380.000 L 384.833 380.000 384.833 381.333 L 384.833 382.667 384.167 382.667 L 383.500 382.667 383.500 384.000 L 383.500 385.333 382.750 385.333 L 382.000 385.333 382.000 382.667 L 382.000 380.000 380.833 380.000 L 379.667 380.000 379.667 385.833 M391.500 380.667 L 391.500 381.333 390.833 381.333 L 390.167 381.333 390.167 382.490 L 390.167 383.647 390.792 383.698 C 391.398 383.748,391.418 383.771,391.468 384.458 C 391.519 385.163,391.522 385.167,392.176 385.167 C 392.832 385.167,392.833 385.168,392.833 385.833 L 392.833 386.500 393.500 386.500 C 394.151 386.500,394.167 386.514,394.167 387.083 C 394.167 387.639,394.194 387.667,394.750 387.667 L 395.333 387.667 395.333 389.083 L 395.333 390.500 393.917 390.500 L 392.500 390.500 392.500 389.917 L 392.500 389.333 391.333 389.333 L 390.167 389.333 390.167 389.833 C 390.167 390.306,390.204 390.333,390.833 390.333 L 391.500 390.333 391.500 391.000 L 391.500 391.667 394.000 391.667 L 396.500 391.667 396.500 391.000 L 396.500 390.333 397.167 390.333 L 397.833 390.333 397.833 389.177 L 397.833 388.020 397.208 387.968 C 396.617 387.919,396.581 387.883,396.532 387.292 C 396.481 386.684,396.462 386.667,395.823 386.667 C 395.170 386.667,395.167 386.663,395.167 386.010 C 395.167 385.372,395.149 385.352,394.542 385.302 C 393.951 385.253,393.914 385.216,393.865 384.625 C 393.815 384.017,393.795 384.000,393.157 384.000 L 392.500 384.000 392.500 382.583 L 392.500 381.167 393.917 381.167 L 395.333 381.167 395.333 381.750 L 395.333 382.333 396.583 382.333 L 397.833 382.333 397.833 381.833 C 397.833 381.361,397.796 381.333,397.167 381.333 L 396.500 381.333 396.500 380.667 L 396.500 380.000 394.000 380.000 L 391.500 380.000 391.500 380.667 M332.333 383.250 L 332.333 385.333 330.917 385.333 L 329.500 385.333 329.500 383.250 L 329.500 381.167 330.917 381.167 L 332.333 381.167 332.333 383.250 M363.833 385.833 L 363.833 390.500 362.417 390.500 L 361.000 390.500 361.000 385.833 L 361.000 381.167 362.417 381.167 L 363.833 381.167 363.833 385.833 M374.333 383.257 L 374.333 385.347 372.958 385.298 L 371.583 385.250 371.536 383.427 C 371.474 381.046,371.396 381.167,372.995 381.167 L 374.333 381.167 374.333 383.257 M285.000 387.167 L 285.000 391.667 286.250 391.667 L 287.500 391.667 287.500 387.667 L 287.500 383.667 288.917 383.667 L 290.333 383.667 290.333 387.667 L 290.333 391.667 291.583 391.667 L 292.833 391.667 292.833 387.833 L 292.833 384.000 292.083 384.000 L 291.333 384.000 291.333 383.333 L 291.333 382.667 288.167 382.667 L 285.000 382.667 285.000 387.167 M317.833 383.167 L 317.833 383.667 319.833 383.667 L 321.833 383.667 321.833 385.167 L 321.833 386.667 319.833 386.667 L 317.833 386.667 317.833 387.333 C 317.833 387.984,317.819 388.000,317.250 388.000 L 316.667 388.000 316.667 389.167 L 316.667 390.333 317.250 390.333 C 317.819 390.333,317.833 390.349,317.833 391.000 L 317.833 391.667 321.083 391.667 L 324.333 391.667 324.333 387.833 L 324.333 384.000 323.667 384.000 L 323.000 384.000 323.000 383.333 L 323.000 382.667 320.417 382.667 L 317.833 382.667 317.833 383.167 M300.833 387.083 L 300.833 390.500 299.417 390.500 L 298.000 390.500 298.000 387.194 C 298.000 383.360,297.867 383.667,299.528 383.667 L 300.833 383.667 300.833 387.083 M311.333 387.083 L 311.333 390.500 309.917 390.500 L 308.500 390.500 308.500 387.083 L 308.500 383.667 309.917 383.667 L 311.333 383.667 311.333 387.083 M352.000 385.833 L 352.000 387.667 352.583 387.667 L 353.167 387.667 353.167 385.833 L 353.167 384.000 352.583 384.000 L 352.000 384.000 352.000 385.833 M281.132 386.542 L 281.083 387.917 280.417 387.917 L 279.750 387.917 279.702 386.542 L 279.653 385.167 280.417 385.167 L 281.180 385.167 281.132 386.542 M321.833 389.083 L 321.833 390.500 320.417 390.500 L 319.000 390.500 319.000 389.083 L 319.000 387.667 320.417 387.667 L 321.833 387.667 321.833 389.083 " stroke="none" fill="#f9eccc" fill-rule="evenodd"></path><path id="path2" d="M140.694 79.834 C 140.824 80.179,142.226 84.035,143.027 86.250 C 143.392 87.258,143.792 88.346,143.918 88.667 C 144.755 90.809,145.834 93.888,145.771 93.951 C 145.729 93.993,145.535 93.941,145.340 93.837 C 137.654 89.723,126.214 91.415,111.333 98.865 C 107.976 100.546,106.617 101.255,103.750 102.822 C 96.361 106.860,93.395 108.000,90.275 108.000 C 84.874 108.000,76.930 104.141,71.163 98.716 L 69.792 97.426 69.891 98.088 C 69.946 98.452,70.037 99.200,70.094 99.750 C 71.629 114.583,80.362 127.178,92.878 132.611 C 93.794 133.008,94.627 133.334,94.730 133.336 C 95.438 133.346,95.341 133.658,94.128 135.270 C 89.662 141.209,87.333 146.613,86.059 154.000 C 85.634 156.466,85.630 163.633,86.053 166.167 C 86.872 171.075,87.776 174.305,89.380 178.065 L 90.226 180.047 90.535 179.665 C 90.705 179.454,91.611 178.053,92.547 176.550 C 93.484 175.046,94.893 172.789,95.680 171.533 C 96.466 170.277,98.046 167.750,99.190 165.917 C 105.634 155.594,107.388 152.833,107.501 152.833 C 107.570 152.833,107.523 153.415,107.396 154.125 C 107.269 154.835,107.045 156.092,106.898 156.917 C 103.945 173.505,95.791 186.992,85.252 192.718 L 84.083 193.354 85.750 193.251 C 87.364 193.152,90.771 192.646,92.037 192.318 C 92.473 192.204,93.042 191.771,93.959 190.855 C 97.679 187.134,103.321 183.941,110.211 181.657 C 111.578 181.204,112.796 180.833,112.918 180.833 C 113.262 180.833,115.128 178.600,116.408 176.656 L 116.951 175.833 117.140 177.692 C 117.371 179.958,117.066 179.763,119.607 179.269 C 123.419 178.527,130.399 177.669,132.630 177.667 C 133.677 177.667,133.579 177.906,133.828 174.750 C 135.231 156.969,138.970 148.824,149.238 141.184 C 150.590 140.178,150.483 140.118,151.319 142.340 C 152.214 144.720,152.321 145.173,151.900 144.812 C 148.822 142.172,141.788 146.123,143.156 149.723 C 144.291 152.708,151.337 150.812,152.378 147.241 L 152.616 146.425 152.801 147.004 C 153.055 147.797,153.833 151.246,153.833 151.577 C 153.833 151.801,153.700 151.827,153.014 151.736 C 150.155 151.357,147.000 153.157,147.000 155.167 C 147.000 157.559,150.996 159.079,154.117 157.873 L 154.983 157.538 155.546 159.311 C 156.204 161.382,156.213 161.312,155.379 160.761 C 152.927 159.138,149.138 159.260,148.113 160.994 C 146.113 164.381,153.464 168.332,156.741 165.631 C 157.067 165.362,157.333 165.035,157.333 164.905 C 157.333 164.351,157.642 164.784,158.621 166.709 C 161.316 172.012,165.227 177.216,170.513 182.535 L 173.281 185.321 172.788 185.919 C 172.171 186.668,172.209 186.701,173.442 186.471 L 174.449 186.284 176.529 187.975 C 178.514 189.590,179.296 190.101,178.542 189.292 C 178.154 188.875,176.304 185.974,176.379 185.899 C 176.429 185.849,180.828 184.981,184.667 184.264 C 204.901 180.484,212.824 180.293,219.042 183.439 C 220.102 183.975,220.075 183.915,218.250 181.658 C 213.253 175.481,207.987 171.526,202.917 170.144 C 201.746 169.825,197.647 169.866,195.833 170.216 C 189.680 171.402,183.130 173.485,173.782 177.230 L 172.315 177.818 171.995 177.072 C 169.191 170.529,167.152 163.398,166.752 158.726 L 166.635 157.370 167.193 157.195 C 167.853 156.988,171.042 156.333,171.390 156.333 C 171.558 156.333,171.721 156.734,171.916 157.625 C 173.822 166.319,180.828 165.852,181.696 156.973 L 181.887 155.028 183.628 154.910 C 185.077 154.811,187.456 154.900,187.615 155.059 C 187.638 155.082,187.496 155.428,187.298 155.826 C 184.564 161.353,194.618 170.316,200.128 167.264 C 203.017 165.663,202.840 161.290,199.748 157.875 C 199.230 157.302,198.881 156.833,198.973 156.833 C 199.300 156.833,202.099 157.879,203.037 158.352 C 203.561 158.617,204.021 158.833,204.058 158.833 C 204.179 158.833,203.697 156.770,203.278 155.495 C 200.701 147.657,195.157 141.874,187.541 139.081 C 186.391 138.659,186.348 138.624,186.641 138.360 C 186.811 138.208,187.314 137.483,187.760 136.750 C 194.489 125.664,203.774 116.600,211.654 113.425 L 213.392 112.725 213.768 111.821 C 215.221 108.325,220.667 94.535,220.667 94.351 C 220.667 94.040,217.757 94.236,215.881 94.672 C 212.368 95.490,209.230 97.606,207.374 100.408 C 206.780 101.304,206.837 101.376,206.508 99.319 C 205.296 91.731,197.694 85.312,187.354 83.146 C 185.446 82.746,185.542 82.618,186.264 84.599 C 186.595 85.507,187.225 87.263,187.666 88.500 C 188.106 89.737,188.815 91.725,189.243 92.917 C 191.682 99.720,191.644 99.573,190.488 97.625 C 184.091 86.843,175.841 83.441,161.350 85.610 C 154.471 86.640,147.369 84.715,141.425 80.210 C 140.971 79.867,140.642 79.697,140.694 79.834 M256.000 81.937 C 245.848 83.234,237.292 90.512,236.588 98.449 C 236.382 100.770,236.024 100.381,241.778 104.086 L 246.855 107.356 247.553 106.621 C 249.762 104.293,252.913 102.843,257.661 101.969 C 264.629 100.687,269.157 102.706,272.314 108.500 C 272.689 109.188,272.996 109.704,272.998 109.647 C 272.999 109.591,272.662 108.358,272.250 106.907 C 271.837 105.457,271.500 104.200,271.500 104.114 C 271.500 103.955,271.982 104.397,276.795 108.971 C 278.287 110.389,279.539 111.517,279.577 111.479 C 280.091 110.965,277.710 103.815,276.324 101.708 C 275.820 100.943,275.866 100.960,280.014 103.044 C 284.128 105.112,286.396 106.473,288.413 108.085 C 289.144 108.669,289.765 109.124,289.794 109.095 C 289.842 109.047,289.392 107.287,289.025 106.083 C 288.319 103.774,286.622 99.934,285.469 98.039 C 285.119 97.464,284.833 96.963,284.833 96.924 C 284.833 96.414,281.318 92.029,279.474 90.238 C 273.236 84.182,263.997 80.915,256.000 81.937 M226.375 118.185 C 219.997 119.248,217.987 124.632,223.050 127.089 C 228.021 129.502,235.489 126.855,235.498 122.678 C 235.505 119.613,231.030 117.409,226.375 118.185 M209.155 119.384 C 203.813 120.898,205.316 125.951,211.011 125.627 C 217.169 125.276,217.614 119.452,211.500 119.227 C 210.529 119.191,209.622 119.252,209.155 119.384 M216.250 127.426 C 216.067 127.469,215.504 127.587,215.000 127.689 C 210.464 128.608,208.279 132.447,210.832 135.012 C 215.726 139.927,227.988 135.051,223.855 129.833 C 222.520 128.149,218.558 126.895,216.250 127.426 M206.250 144.137 C 202.736 145.819,204.789 152.055,209.583 154.264 C 214.185 156.384,217.051 153.269,214.742 148.659 C 213.080 145.341,208.656 142.985,206.250 144.137 M275.466 151.727 L 271.016 152.750 269.550 154.182 C 265.254 158.376,256.606 162.725,249.042 164.495 C 247.901 164.762,247.906 164.770,249.708 165.864 C 255.150 169.164,263.856 171.937,266.107 171.087 C 273.216 168.403,280.789 161.867,285.269 154.549 C 285.650 153.926,285.950 153.402,285.935 153.384 C 285.910 153.355,279.924 155.630,273.609 158.068 C 272.248 158.593,271.108 158.997,271.076 158.965 C 271.043 158.932,273.113 157.074,275.675 154.835 C 278.237 152.596,280.333 150.742,280.333 150.715 C 280.333 150.618,279.845 150.720,275.466 151.727 M140.880 156.925 C 136.436 159.139,133.844 170.631,136.569 176.035 C 138.852 180.562,143.485 177.435,145.384 170.083 C 147.459 162.054,145.000 154.871,140.880 156.925 M213.333 156.862 C 210.956 158.469,212.435 163.775,215.716 165.410 C 219.621 167.356,221.174 162.085,217.819 158.274 C 216.417 156.681,214.496 156.076,213.333 156.862 M149.531 166.678 C 146.915 167.193,146.298 169.595,148.286 171.525 C 151.288 174.441,156.833 174.049,156.833 170.923 C 156.833 168.297,152.906 166.014,149.531 166.678 M143.945 178.561 C 139.575 179.796,140.215 184.507,145.069 186.828 C 149.463 188.929,154.232 187.754,154.467 184.512 C 154.734 180.813,148.485 177.278,143.945 178.561 M175.167 182.663 C 175.388 182.803,175.386 182.852,175.155 183.083 C 174.916 183.322,174.875 183.307,174.700 182.923 C 174.490 182.462,174.681 182.356,175.167 182.663 M226.417 200.890 C 221.640 202.471,219.197 211.042,221.527 218.044 C 224.021 225.538,230.432 226.092,233.388 219.067 C 236.930 210.653,232.423 198.902,226.417 200.890 M171.615 212.405 C 170.201 212.785,169.434 213.739,168.928 215.750 C 167.365 221.961,157.095 234.290,145.167 244.273 C 137.544 250.653,126.372 253.266,111.500 252.149 C 109.535 252.002,104.894 251.387,103.407 251.077 C 102.500 250.888,101.855 253.117,102.609 253.835 C 102.957 254.167,104.214 254.592,107.000 255.321 C 126.541 260.434,142.769 255.453,154.574 240.718 C 155.894 239.071,156.799 237.824,162.473 229.833 C 168.082 221.933,170.990 218.848,173.623 218.001 C 176.749 216.997,178.867 214.645,177.616 213.569 C 176.370 212.497,173.409 211.923,171.615 212.405 M114.550 226.110 C 113.292 226.925,112.537 228.487,112.387 230.583 C 112.015 235.790,116.421 238.572,118.749 234.600 C 121.238 230.353,118.025 223.857,114.550 226.110 M108.166 235.315 C 104.221 236.584,103.200 243.481,106.500 246.567 C 110.415 250.230,115.152 243.648,112.605 238.084 C 111.678 236.058,109.697 234.823,108.166 235.315 M122.237 235.397 C 120.485 236.182,119.375 239.590,119.809 242.851 C 120.337 246.818,122.681 248.807,124.585 246.904 C 127.993 243.496,125.997 233.712,122.237 235.397 " stroke="none" fill="#35354a" fill-rule="evenodd"></path><path id="path3" d="M199.936 42.184 C 199.896 42.312,199.779 43.654,199.675 45.167 C 199.572 46.679,199.378 49.417,199.244 51.250 C 198.663 59.215,198.488 61.619,198.249 64.917 C 198.109 66.842,197.920 69.392,197.828 70.583 C 197.474 75.186,197.316 77.666,197.238 79.833 C 197.194 81.071,197.086 82.721,196.997 83.500 C 196.693 86.175,196.741 86.529,197.467 86.943 C 202.557 89.849,206.833 96.038,206.833 100.498 L 206.833 101.033 207.427 100.142 C 208.799 98.082,211.285 96.167,213.909 95.149 C 216.109 94.294,220.833 93.652,220.833 94.207 C 220.833 94.346,219.195 98.556,217.193 103.563 C 215.191 108.570,213.600 112.667,213.658 112.667 C 213.716 112.667,214.173 112.563,214.673 112.436 C 215.174 112.309,216.371 112.081,217.333 111.929 C 224.244 110.840,230.032 108.924,232.208 107.004 C 233.053 106.258,233.053 106.324,232.207 107.951 C 230.816 110.626,228.868 113.603,227.604 114.986 L 227.083 115.555 227.583 115.209 C 232.001 112.153,236.316 104.566,236.422 99.667 C 236.630 90.064,247.733 81.192,258.910 81.698 C 259.830 81.739,260.302 81.745,259.958 81.710 C 259.172 81.631,259.149 81.716,260.470 79.805 C 263.226 75.817,266.661 70.667,266.564 70.667 C 266.425 70.667,265.104 71.410,262.417 72.999 C 261.225 73.704,259.087 74.956,257.667 75.780 C 252.245 78.927,244.228 83.654,240.636 85.822 C 236.347 88.411,234.196 89.667,234.048 89.667 C 233.959 89.667,233.985 88.883,234.109 87.792 C 234.226 86.760,234.400 85.129,234.496 84.167 C 234.592 83.204,234.707 82.229,234.752 82.000 C 234.797 81.771,234.905 80.908,234.991 80.083 C 235.078 79.258,235.299 77.308,235.483 75.750 C 235.995 71.416,236.302 68.759,236.753 64.750 C 236.980 62.733,237.235 60.596,237.319 60.000 C 237.722 57.151,237.992 55.047,238.241 52.833 C 238.778 48.058,238.857 47.412,238.939 47.125 C 239.173 46.306,238.260 47.424,233.223 54.125 C 230.208 58.135,225.587 64.282,222.954 67.785 C 220.321 71.287,218.167 74.198,218.167 74.254 C 218.167 74.513,212.600 81.666,212.489 81.550 C 212.380 81.434,210.714 76.309,210.334 74.917 C 210.259 74.642,209.434 72.017,208.502 69.083 C 207.570 66.150,206.671 63.225,206.504 62.583 C 206.186 61.362,200.166 42.132,200.065 42.018 C 200.034 41.982,199.975 42.057,199.936 42.184 M185.333 90.885 C 185.333 90.914,185.577 91.158,185.875 91.427 L 186.417 91.917 185.927 91.375 C 185.471 90.870,185.333 90.757,185.333 90.885 M190.765 97.809 C 190.717 97.887,190.785 98.093,190.917 98.267 C 191.048 98.441,191.158 98.494,191.161 98.385 C 191.164 98.276,191.090 98.139,190.997 98.082 C 190.904 98.024,190.871 97.907,190.924 97.822 C 190.977 97.736,190.982 97.667,190.936 97.667 C 190.891 97.667,190.813 97.731,190.765 97.809 M292.883 125.167 C 292.883 125.671,292.915 125.877,292.953 125.625 C 292.991 125.373,292.991 124.960,292.953 124.708 C 292.915 124.456,292.883 124.662,292.883 125.167 M292.881 132.083 C 292.882 132.542,292.915 132.709,292.953 132.456 C 292.991 132.203,292.990 131.828,292.951 131.623 C 292.911 131.418,292.880 131.625,292.881 132.083 M230.333 167.625 C 230.332 167.841,229.234 175.263,229.069 176.167 L 228.962 176.750 228.725 175.833 C 228.432 174.697,227.734 173.182,226.910 171.896 L 226.283 170.917 225.923 172.250 C 224.962 175.817,221.815 178.940,217.949 180.164 L 217.315 180.365 217.745 180.891 C 218.686 182.043,220.000 183.785,220.000 183.881 C 220.000 183.937,219.558 183.764,219.017 183.496 C 215.591 181.795,210.068 180.930,205.115 181.317 C 199.470 181.758,192.339 182.858,180.583 185.102 C 179.850 185.242,178.785 185.464,178.216 185.595 C 177.647 185.726,177.028 185.833,176.841 185.833 C 176.308 185.833,176.629 186.470,178.364 188.854 C 178.805 189.461,179.167 190.008,179.167 190.070 C 179.167 190.196,177.151 188.656,175.459 187.236 L 174.334 186.293 173.209 186.574 C 172.446 186.764,171.438 187.240,170.083 188.047 C 158.656 194.856,141.683 200.448,126.461 202.418 C 126.027 202.474,125.615 202.621,125.544 202.744 C 124.943 203.800,121.029 207.506,118.750 209.176 C 118.200 209.579,117.375 210.241,116.917 210.648 C 115.009 212.340,110.822 214.717,107.417 216.041 C 103.053 217.739,96.287 219.722,91.712 220.644 L 89.417 221.107 89.363 222.179 C 89.067 228.108,90.867 236.457,93.456 241.167 C 95.904 245.620,100.948 250.593,103.451 251.020 C 108.970 251.963,112.990 252.332,117.770 252.333 C 127.853 252.335,136.129 250.326,142.212 246.401 C 146.412 243.690,156.399 234.117,161.406 228.000 C 162.119 227.129,162.827 226.267,162.979 226.083 C 165.650 222.863,169.000 216.800,169.000 215.185 C 169.000 212.412,173.571 211.242,177.046 213.126 C 179.125 214.253,177.450 216.794,173.833 217.998 C 170.568 219.085,167.144 222.997,158.735 235.250 L 157.706 236.750 158.100 237.325 C 160.357 240.613,161.337 259.616,159.911 272.450 C 159.525 275.924,159.111 275.709,163.081 274.090 L 166.495 272.698 167.095 273.516 C 167.425 273.965,167.733 274.333,167.778 274.333 C 167.824 274.333,167.599 273.975,167.277 273.537 L 166.693 272.741 167.638 272.345 C 168.909 271.813,173.479 270.008,174.000 269.832 C 174.229 269.755,174.829 269.533,175.333 269.340 C 177.313 268.580,182.527 266.894,184.333 266.429 C 184.563 266.370,185.350 266.166,186.083 265.975 C 189.570 265.069,192.919 264.464,197.583 263.898 C 199.515 263.664,201.310 263.619,208.012 263.640 C 218.198 263.671,220.523 263.439,226.667 261.780 C 243.894 257.126,258.203 239.228,256.312 224.699 L 256.069 222.833 257.410 222.837 C 258.147 222.839,260.025 222.946,261.583 223.074 C 264.642 223.327,264.920 223.281,264.204 222.643 C 263.946 222.413,262.388 220.995,260.743 219.493 C 257.971 216.962,256.700 215.803,252.259 211.759 C 251.347 210.929,250.147 209.831,249.592 209.318 C 249.037 208.805,248.321 208.151,248.000 207.864 L 247.417 207.343 258.708 207.338 C 264.919 207.336,269.998 207.277,269.996 207.208 C 269.994 207.140,269.679 206.861,269.296 206.590 C 263.112 202.212,255.437 193.712,251.832 187.250 C 249.673 183.382,246.747 180.041,241.583 175.550 C 237.594 172.080,230.335 166.967,230.333 167.625 M301.333 169.750 C 299.912 170.321,296.762 171.597,294.333 172.586 L 289.917 174.383 280.167 174.597 C 274.804 174.715,268.636 174.816,266.459 174.822 L 262.501 174.833 259.125 177.116 C 257.269 178.371,254.906 179.956,253.875 180.638 C 252.844 181.320,252.000 181.928,252.000 181.990 C 252.000 182.052,253.659 183.973,255.686 186.259 C 257.714 188.546,259.832 190.939,260.395 191.578 C 260.957 192.216,261.822 193.191,262.317 193.744 C 263.258 194.795,263.505 195.074,265.417 197.253 C 266.058 197.985,266.658 198.667,266.750 198.768 C 267.564 199.672,268.367 200.575,271.246 203.833 C 273.070 205.896,274.772 207.808,275.029 208.083 L 275.497 208.583 272.790 208.696 C 268.596 208.870,257.620 209.174,255.635 209.170 C 253.718 209.166,253.426 209.286,254.085 209.805 C 254.318 209.988,256.017 211.588,257.862 213.360 C 259.707 215.133,261.299 216.660,261.400 216.753 C 261.501 216.847,263.121 218.384,265.000 220.170 C 266.879 221.956,268.754 223.735,269.167 224.123 C 269.873 224.789,269.892 224.830,269.500 224.831 C 269.271 224.832,268.483 224.940,267.750 225.071 C 266.512 225.292,263.467 225.746,261.917 225.941 C 260.808 226.080,260.708 226.145,260.589 226.797 C 260.405 227.808,259.170 232.855,258.908 233.667 C 258.775 234.079,258.409 235.279,258.095 236.333 C 254.190 249.448,248.530 258.988,242.499 262.624 C 240.528 263.812,236.016 265.439,232.667 266.170 C 232.346 266.239,231.521 266.422,230.833 266.576 C 224.920 267.896,216.244 268.792,207.820 268.953 L 203.057 269.044 203.181 269.832 C 203.250 270.265,203.381 270.911,203.474 271.268 C 203.566 271.625,203.773 272.517,203.934 273.250 C 204.266 274.766,205.170 278.299,205.575 279.667 C 205.725 280.171,205.913 280.808,205.994 281.083 C 206.571 283.045,207.488 285.333,207.698 285.333 C 207.779 285.333,209.410 283.740,211.323 281.792 L 214.800 278.250 214.887 278.833 C 215.016 279.685,215.488 282.698,215.750 284.333 C 216.340 288.014,216.756 290.740,216.921 292.000 C 217.279 294.741,217.307 294.770,218.845 294.007 C 222.086 292.399,225.234 289.225,227.116 285.667 C 228.563 282.931,230.167 277.938,230.167 276.168 C 230.167 275.520,230.309 275.536,231.009 276.265 C 235.804 281.263,243.253 284.389,250.417 284.410 C 252.469 284.416,255.333 284.102,255.333 283.872 C 255.333 283.828,254.940 283.159,254.458 282.387 C 253.977 281.614,253.471 280.801,253.333 280.579 C 252.284 278.884,250.099 275.422,249.076 273.833 C 248.397 272.779,247.791 271.804,247.729 271.667 C 247.667 271.529,247.525 271.304,247.414 271.167 C 246.918 270.550,246.269 269.250,246.593 269.519 C 246.771 269.667,247.373 270.154,247.930 270.602 C 249.224 271.642,249.964 272.244,253.333 275.001 C 254.846 276.239,256.421 277.512,256.833 277.830 C 257.246 278.148,257.621 278.451,257.667 278.504 C 257.896 278.769,262.196 282.191,262.237 282.141 C 262.522 281.791,263.244 278.915,263.583 276.781 C 263.910 274.724,263.865 267.561,263.511 265.417 C 262.680 260.377,261.660 256.239,260.338 252.542 L 259.847 251.167 262.132 251.166 C 264.575 251.164,269.672 250.798,271.379 250.501 C 273.727 250.093,276.051 249.572,277.839 249.054 C 278.005 249.006,278.237 249.230,278.505 249.697 C 279.205 250.916,279.208 250.962,278.616 251.143 C 276.751 251.713,267.867 253.191,264.902 253.424 C 263.046 253.570,263.058 253.553,263.721 255.012 C 266.507 261.151,267.425 271.328,266.011 280.417 C 265.251 285.298,265.140 285.852,264.914 285.857 C 264.824 285.859,263.379 284.832,261.704 283.574 C 260.029 282.315,258.626 281.318,258.587 281.358 C 258.547 281.397,259.149 282.437,259.924 283.669 C 261.609 286.346,261.579 286.070,260.208 286.309 C 252.401 287.667,241.891 285.781,233.543 281.522 C 233.160 281.326,232.817 281.167,232.781 281.167 C 232.744 281.167,232.667 281.673,232.609 282.292 C 231.876 290.077,225.719 296.441,216.041 299.416 C 215.198 299.676,215.216 299.698,215.000 298.144 C 214.905 297.469,214.755 296.504,214.665 296.000 C 214.575 295.496,214.277 293.658,214.003 291.917 C 213.213 286.888,212.983 285.484,212.774 284.417 L 212.578 283.417 209.859 286.083 C 206.981 288.905,206.833 289.027,206.833 288.574 C 206.833 288.416,206.606 287.529,206.328 286.602 C 206.050 285.675,205.717 284.542,205.587 284.083 C 205.157 282.562,203.964 278.450,203.242 276.000 C 202.851 274.671,202.480 273.340,202.419 273.042 C 202.326 272.592,202.230 272.500,201.857 272.500 C 200.429 272.500,196.127 273.288,193.936 273.951 C 187.670 275.848,181.008 278.690,174.220 282.360 L 172.857 283.097 173.428 284.311 C 177.517 293.002,178.677 301.436,177.409 313.250 C 176.783 319.076,175.223 325.585,174.122 326.962 C 173.842 327.313,174.073 327.358,175.188 327.168 C 175.772 327.069,178.946 326.538,182.241 325.989 C 212.931 320.873,238.382 315.149,250.795 310.572 C 264.724 305.434,278.145 291.678,286.855 273.607 L 287.969 271.297 287.661 270.190 C 286.181 264.877,281.542 254.299,278.689 249.736 C 278.232 249.004,278.208 248.905,278.464 248.804 C 278.621 248.742,279.612 248.379,280.667 247.997 C 288.535 245.147,295.496 239.829,299.708 233.449 C 300.759 231.857,300.783 231.902,298.801 231.772 C 287.091 231.005,273.581 224.709,266.927 216.920 L 266.212 216.083 270.148 216.072 C 281.251 216.041,290.286 211.153,297.634 201.203 C 299.456 198.735,302.646 193.133,302.474 192.701 C 302.443 192.621,298.967 193.251,294.750 194.101 C 285.735 195.919,286.091 195.879,287.706 194.875 C 293.728 191.129,299.885 181.624,303.576 170.375 C 304.177 168.544,304.272 168.570,301.333 169.750 M261.161 174.576 C 261.271 174.710,261.314 174.897,261.255 174.993 C 261.192 175.094,261.303 175.167,261.519 175.167 L 261.891 175.167 261.500 174.750 C 261.081 174.304,260.826 174.173,261.161 174.576 M229.594 201.063 C 235.645 203.881,236.620 217.584,231.127 222.613 C 225.655 227.624,219.238 219.544,220.745 209.541 C 221.714 203.106,225.727 199.262,229.594 201.063 M117.090 225.813 C 118.968 226.666,120.110 229.692,119.587 232.426 C 118.501 238.102,113.289 237.938,112.304 232.197 C 111.628 228.256,114.382 224.583,117.090 225.813 M110.901 235.784 C 115.114 238.729,113.622 247.667,108.917 247.667 C 105.045 247.667,103.003 241.273,105.585 237.236 C 106.894 235.190,109.164 234.570,110.901 235.784 M124.600 235.849 C 128.010 239.155,126.513 248.137,122.638 247.617 C 119.126 247.146,118.523 237.593,121.872 235.490 C 122.705 234.967,123.844 235.117,124.600 235.849 M150.667 245.083 C 150.262 245.496,149.968 245.833,150.014 245.833 C 150.060 245.833,150.428 245.496,150.833 245.083 C 151.238 244.671,151.532 244.333,151.486 244.333 C 151.440 244.333,151.072 244.671,150.667 245.083 M138.917 253.532 C 132.248 256.973,122.130 258.192,112.917 256.664 C 110.549 256.272,105.810 255.142,103.965 254.531 L 103.013 254.216 103.104 254.983 C 104.688 268.379,112.560 277.191,125.583 280.147 C 130.977 281.371,138.257 281.471,143.716 280.395 C 144.157 280.308,144.178 280.266,144.090 279.610 C 142.703 269.276,142.129 265.411,140.909 258.186 C 140.501 255.767,140.167 253.611,140.167 253.394 C 140.167 252.901,140.133 252.904,138.917 253.532 M202.364 265.250 C 202.366 265.729,202.790 267.316,202.810 266.917 C 202.819 266.733,202.723 266.208,202.595 265.750 C 202.467 265.292,202.364 265.067,202.364 265.250 M169.554 277.125 C 169.594 277.194,169.923 277.737,170.284 278.333 C 170.645 278.929,171.190 279.887,171.495 280.461 C 171.800 281.036,172.077 281.479,172.111 281.445 C 172.219 281.336,169.733 277.000,169.562 277.000 C 169.517 277.000,169.513 277.056,169.554 277.125 " stroke="none" fill="#85869e" fill-rule="evenodd"></path><path id="path4" d="M255.917 81.831 C 255.550 81.896,256.150 81.912,257.250 81.868 C 258.350 81.823,259.281 81.760,259.319 81.727 C 259.440 81.622,256.613 81.709,255.917 81.831 M253.083 82.341 C 252.851 82.446,252.952 82.461,253.417 82.391 C 253.783 82.335,254.115 82.262,254.153 82.228 C 254.296 82.102,253.403 82.196,253.083 82.341 M245.597 85.429 C 244.411 86.144,242.876 87.312,242.417 87.849 C 242.233 88.063,242.458 87.915,242.917 87.519 C 243.625 86.907,244.301 86.434,246.443 85.051 C 247.155 84.592,246.503 84.882,245.597 85.429 M200.083 88.907 C 200.450 89.240,201.050 89.742,201.417 90.022 L 202.083 90.532 201.417 89.926 C 201.050 89.593,200.450 89.091,200.083 88.811 L 199.417 88.302 200.083 88.907 M241.416 88.668 C 240.990 89.138,241.171 89.182,241.619 88.717 C 241.822 88.506,241.927 88.333,241.853 88.333 C 241.779 88.333,241.582 88.484,241.416 88.668 M240.165 90.125 C 239.781 90.560,239.396 91.067,239.308 91.250 C 239.220 91.433,239.321 91.358,239.532 91.083 C 239.743 90.808,240.169 90.302,240.477 89.958 C 240.786 89.615,240.999 89.333,240.950 89.333 C 240.902 89.333,240.548 89.690,240.165 90.125 M279.660 90.375 C 280.350 91.111,280.500 91.243,280.500 91.118 C 280.500 91.091,280.144 90.735,279.708 90.326 L 278.917 89.583 279.660 90.375 M202.298 90.917 C 202.392 91.100,202.683 91.437,202.943 91.666 L 203.417 92.082 202.918 91.499 C 202.128 90.576,202.117 90.566,202.298 90.917 M132.794 91.785 C 133.001 91.824,133.301 91.823,133.460 91.781 C 133.620 91.739,133.450 91.707,133.083 91.709 C 132.717 91.711,132.586 91.745,132.794 91.785 M136.792 91.784 C 136.998 91.824,137.335 91.824,137.542 91.784 C 137.748 91.745,137.579 91.712,137.167 91.712 C 136.754 91.712,136.585 91.745,136.792 91.784 M203.730 92.695 C 203.969 93.032,204.471 93.857,204.847 94.529 C 205.223 95.200,205.482 95.600,205.422 95.417 C 205.236 94.847,204.203 93.108,203.739 92.583 L 203.296 92.083 203.730 92.695 M219.781 94.123 C 220.421 94.168,220.665 94.257,220.720 94.467 C 220.774 94.670,220.800 94.644,220.814 94.375 C 220.832 94.024,220.772 94.002,219.875 94.031 L 218.917 94.062 219.781 94.123 M237.398 94.601 C 237.260 94.932,237.177 95.233,237.214 95.270 C 237.251 95.307,237.400 95.036,237.544 94.668 C 237.870 93.837,237.742 93.778,237.398 94.601 M217.711 94.286 C 217.964 94.325,218.339 94.324,218.544 94.284 C 218.749 94.244,218.542 94.213,218.083 94.214 C 217.625 94.216,217.457 94.248,217.711 94.286 M215.250 94.667 C 214.825 94.849,215.263 94.849,215.833 94.667 C 216.168 94.559,216.185 94.532,215.917 94.528 C 215.733 94.526,215.433 94.588,215.250 94.667 M236.929 95.929 C 236.867 96.173,236.849 96.405,236.889 96.444 C 236.928 96.483,237.010 96.316,237.071 96.071 C 237.133 95.827,237.151 95.595,237.111 95.556 C 237.072 95.517,236.990 95.684,236.929 95.929 M219.852 96.519 C 219.749 96.813,219.694 97.083,219.730 97.119 C 219.766 97.155,219.879 96.943,219.981 96.648 C 220.084 96.354,220.139 96.083,220.103 96.048 C 220.068 96.012,219.955 96.224,219.852 96.519 M210.572 96.917 C 210.120 97.237,209.812 97.500,209.887 97.500 C 210.004 97.500,210.937 96.867,211.408 96.468 C 211.820 96.119,211.306 96.395,210.572 96.917 M206.023 97.167 C 206.023 97.304,206.088 97.567,206.167 97.750 C 206.257 97.960,206.310 97.991,206.310 97.833 C 206.310 97.696,206.245 97.433,206.167 97.250 C 206.076 97.040,206.023 97.009,206.023 97.167 M236.437 98.402 C 236.376 98.990,236.370 99.871,236.423 100.361 C 236.784 103.704,231.581 112.444,227.583 115.209 L 227.083 115.555 227.604 114.986 C 228.868 113.603,230.816 110.626,232.207 107.951 C 233.053 106.324,233.053 106.258,232.208 107.004 C 230.043 108.914,224.287 110.826,217.417 111.916 C 212.900 112.633,210.094 113.752,206.083 116.433 C 199.990 120.508,192.739 128.547,187.760 136.750 C 187.314 137.483,186.811 138.208,186.641 138.360 C 186.348 138.624,186.391 138.659,187.541 139.081 C 195.157 141.874,200.701 147.657,203.278 155.495 C 203.697 156.770,204.179 158.833,204.058 158.833 C 204.021 158.833,203.561 158.617,203.037 158.352 C 202.099 157.879,199.300 156.833,198.973 156.833 C 198.881 156.833,199.230 157.302,199.748 157.875 C 202.840 161.290,203.017 165.663,200.128 167.264 C 194.618 170.316,184.564 161.353,187.298 155.826 C 187.496 155.428,187.638 155.082,187.615 155.059 C 187.456 154.900,185.077 154.811,183.628 154.910 L 181.887 155.028 181.696 156.973 C 180.828 165.852,173.822 166.319,171.916 157.625 C 171.721 156.734,171.558 156.333,171.390 156.333 C 171.042 156.333,167.853 156.988,167.193 157.195 L 166.635 157.370 166.752 158.726 C 167.152 163.398,169.191 170.529,171.995 177.072 L 172.315 177.818 173.782 177.230 C 183.130 173.485,189.680 171.402,195.833 170.216 C 197.647 169.866,201.746 169.825,202.917 170.144 C 207.470 171.385,211.872 174.469,216.750 179.833 C 217.292 180.429,217.641 180.792,217.527 180.640 C 217.345 180.400,217.400 180.338,217.951 180.164 C 221.815 178.940,224.962 175.816,225.923 172.250 L 226.283 170.917 226.910 171.896 C 227.734 173.182,228.432 174.697,228.725 175.833 L 228.962 176.750 229.069 176.167 C 229.234 175.263,230.332 167.841,230.333 167.625 C 230.335 166.967,237.594 172.080,241.583 175.550 C 246.747 180.041,249.673 183.382,251.832 187.250 C 255.437 193.712,263.112 202.212,269.296 206.590 C 269.679 206.861,269.994 207.140,269.996 207.208 C 269.998 207.277,264.919 207.336,258.708 207.338 L 247.417 207.343 248.000 207.864 C 248.321 208.151,249.037 208.805,249.592 209.318 C 250.147 209.831,251.347 210.929,252.259 211.759 C 256.700 215.803,257.971 216.962,260.743 219.493 C 262.388 220.995,263.946 222.413,264.204 222.643 C 264.920 223.281,264.642 223.327,261.583 223.074 C 260.025 222.946,258.147 222.839,257.410 222.837 L 256.069 222.833 256.312 224.699 C 258.203 239.228,243.894 257.126,226.667 261.780 C 220.523 263.439,218.198 263.671,208.012 263.640 C 201.310 263.619,199.515 263.664,197.583 263.898 C 192.919 264.464,189.570 265.069,186.083 265.975 C 185.350 266.166,184.563 266.370,184.333 266.429 C 182.560 266.885,177.413 268.548,175.333 269.335 C 174.829 269.527,174.154 269.780,173.833 269.899 C 172.302 270.468,168.799 271.852,167.802 272.282 L 166.687 272.763 167.067 273.257 C 168.794 275.497,172.410 281.480,172.868 282.854 C 172.914 282.991,173.550 282.730,174.760 282.079 C 181.336 278.540,187.729 275.831,193.936 273.951 C 196.127 273.288,200.429 272.500,201.857 272.500 C 202.230 272.500,202.326 272.592,202.419 273.042 C 202.480 273.340,202.851 274.671,203.242 276.000 C 203.964 278.450,205.157 282.562,205.587 284.083 C 205.717 284.542,206.050 285.675,206.328 286.602 C 206.606 287.529,206.833 288.416,206.833 288.574 C 206.833 289.027,206.981 288.905,209.859 286.083 L 212.578 283.417 212.774 284.417 C 212.983 285.484,213.213 286.888,214.003 291.917 C 214.277 293.658,214.575 295.496,214.665 296.000 C 214.755 296.504,214.905 297.469,215.000 298.144 C 215.216 299.698,215.198 299.676,216.041 299.416 C 225.719 296.441,231.876 290.077,232.609 282.292 C 232.667 281.673,232.744 281.167,232.781 281.167 C 232.817 281.167,233.160 281.326,233.543 281.522 C 241.891 285.781,252.401 287.667,260.208 286.309 C 261.579 286.070,261.609 286.346,259.924 283.669 C 259.149 282.437,258.547 281.397,258.587 281.358 C 258.626 281.318,260.046 282.328,261.741 283.601 C 263.437 284.875,264.881 285.902,264.951 285.885 C 265.138 285.839,265.284 285.087,266.011 280.417 C 267.425 271.328,266.507 261.151,263.721 255.012 C 263.058 253.553,263.046 253.570,264.902 253.424 C 267.867 253.191,276.751 251.713,278.616 251.143 C 279.208 250.962,279.205 250.916,278.505 249.697 C 278.237 249.230,278.005 249.006,277.839 249.054 C 276.051 249.572,273.727 250.093,271.379 250.501 C 269.672 250.798,264.575 251.164,262.132 251.166 L 259.847 251.167 260.338 252.542 C 261.660 256.239,262.680 260.377,263.511 265.417 C 263.865 267.561,263.910 274.724,263.583 276.781 C 263.244 278.915,262.522 281.791,262.237 282.141 C 262.196 282.191,257.896 278.769,257.667 278.504 C 257.621 278.451,257.246 278.148,256.833 277.830 C 256.421 277.512,254.846 276.239,253.333 275.001 C 249.964 272.244,249.224 271.642,247.930 270.602 C 247.373 270.154,246.771 269.667,246.593 269.519 C 246.269 269.250,246.918 270.550,247.414 271.167 C 247.525 271.304,247.667 271.529,247.729 271.667 C 247.791 271.804,248.397 272.779,249.076 273.833 C 250.099 275.422,252.284 278.884,253.333 280.579 C 253.471 280.801,253.977 281.614,254.458 282.387 C 254.940 283.159,255.333 283.828,255.333 283.872 C 255.333 284.102,252.469 284.416,250.417 284.410 C 243.253 284.389,235.804 281.263,231.009 276.265 C 230.309 275.536,230.167 275.520,230.167 276.168 C 230.167 277.938,228.563 282.931,227.116 285.667 C 225.234 289.225,222.086 292.399,218.845 294.007 C 217.307 294.770,217.279 294.741,216.921 292.000 C 216.756 290.740,216.340 288.014,215.750 284.333 C 215.488 282.698,215.016 279.685,214.887 278.833 L 214.800 278.250 211.323 281.792 C 209.410 283.740,207.779 285.333,207.698 285.333 C 207.488 285.333,206.571 283.045,205.994 281.083 C 205.913 280.808,205.725 280.171,205.575 279.667 C 205.170 278.299,204.266 274.766,203.934 273.250 C 203.773 272.517,203.566 271.625,203.474 271.268 C 203.381 270.911,203.250 270.265,203.181 269.832 L 203.057 269.044 207.820 268.953 C 216.244 268.792,224.920 267.896,230.833 266.576 C 231.521 266.422,232.346 266.239,232.667 266.170 C 236.016 265.439,240.528 263.812,242.499 262.624 C 248.530 258.988,254.190 249.448,258.095 236.333 C 258.409 235.279,258.775 234.079,258.908 233.667 C 259.170 232.855,260.405 227.808,260.589 226.797 C 260.708 226.145,260.808 226.080,261.917 225.941 C 263.467 225.746,266.512 225.292,267.750 225.071 C 268.483 224.940,269.271 224.832,269.500 224.831 C 269.892 224.830,269.873 224.789,269.167 224.123 C 268.754 223.735,266.879 221.956,265.000 220.170 C 263.121 218.384,261.501 216.847,261.400 216.753 C 261.299 216.660,259.707 215.133,257.862 213.360 C 256.017 211.588,254.318 209.988,254.085 209.805 C 253.426 209.286,253.718 209.166,255.635 209.170 C 257.620 209.174,268.596 208.870,272.790 208.696 L 275.497 208.583 275.029 208.083 C 274.772 207.808,273.070 205.896,271.246 203.833 C 268.367 200.575,267.564 199.672,266.750 198.768 C 266.658 198.667,266.058 197.985,265.417 197.253 C 263.505 195.074,263.258 194.795,262.317 193.744 C 261.822 193.191,260.957 192.216,260.395 191.578 C 259.832 190.939,257.714 188.546,255.686 186.259 C 253.659 183.973,252.000 182.052,252.000 181.990 C 252.000 181.928,252.844 181.320,253.875 180.638 C 255.968 179.254,262.044 175.161,262.155 175.061 C 262.194 175.026,261.976 175.047,261.670 175.108 C 261.251 175.191,261.146 175.168,261.242 175.012 C 261.319 174.888,261.199 174.628,260.939 174.357 L 260.508 173.907 262.932 172.676 L 265.355 171.445 263.136 170.996 C 257.638 169.883,248.697 166.186,248.194 164.818 C 248.164 164.735,248.058 164.667,247.959 164.667 C 247.726 164.667,245.500 162.977,245.500 162.801 C 245.500 162.727,245.603 162.667,245.729 162.667 C 247.112 162.667,251.561 160.448,253.457 158.812 L 253.997 158.347 252.290 157.829 C 251.351 157.545,250.021 157.138,249.333 156.925 C 248.646 156.712,247.521 156.374,246.833 156.173 C 246.146 155.972,245.471 155.765,245.333 155.713 C 245.196 155.661,246.021 155.491,247.167 155.335 C 252.696 154.582,256.821 152.297,259.550 148.472 C 260.175 147.596,261.500 145.097,261.500 144.795 C 261.500 144.761,260.844 144.793,260.042 144.865 C 254.179 145.394,252.627 145.536,250.417 145.747 C 245.503 146.215,244.634 146.202,246.764 145.691 C 247.557 145.501,253.699 143.752,255.583 143.179 C 255.858 143.096,257.058 142.753,258.250 142.418 C 261.178 141.594,260.955 141.680,260.662 141.491 C 259.178 140.534,251.998 139.333,247.757 139.333 C 245.649 139.333,245.647 139.325,247.443 138.167 C 252.517 134.894,255.050 128.867,253.747 123.167 C 253.611 122.571,253.458 121.903,253.407 121.683 C 253.323 121.319,253.248 121.381,252.594 122.355 C 249.634 126.769,243.303 131.124,234.333 134.918 C 233.096 135.441,231.896 135.931,231.667 136.006 C 231.438 136.081,230.733 136.335,230.101 136.571 C 228.712 137.089,228.891 137.095,228.594 136.520 L 228.346 136.041 229.131 135.746 C 232.373 134.529,235.607 132.205,237.426 129.786 C 238.955 127.752,239.191 127.152,242.487 116.917 C 244.090 111.937,245.268 109.384,246.750 107.677 C 247.025 107.360,247.158 107.157,247.046 107.224 C 246.922 107.299,244.856 106.068,241.771 104.082 C 236.031 100.385,236.373 100.755,236.596 98.491 C 236.658 97.854,236.673 97.333,236.628 97.333 C 236.583 97.333,236.497 97.814,236.437 98.402 M208.909 98.375 L 208.250 99.083 208.958 98.425 C 209.617 97.812,209.743 97.667,209.617 97.667 C 209.590 97.667,209.271 97.985,208.909 98.375 M71.000 98.552 C 71.000 98.581,71.244 98.825,71.542 99.094 L 72.083 99.583 71.594 99.042 C 71.138 98.537,71.000 98.423,71.000 98.552 M206.615 99.750 C 206.667 100.300,206.737 100.781,206.771 100.819 C 206.882 100.943,206.798 99.764,206.658 99.250 C 206.569 98.921,206.554 99.092,206.615 99.750 M207.614 99.847 C 207.356 100.206,207.179 100.500,207.219 100.500 C 207.334 100.500,208.208 99.319,208.142 99.253 C 208.110 99.221,207.872 99.488,207.614 99.847 M276.324 101.708 C 277.710 103.815,280.091 110.965,279.577 111.479 C 279.539 111.517,278.287 110.389,276.795 108.971 C 271.982 104.397,271.500 103.955,271.500 104.114 C 271.500 104.200,271.837 105.455,272.249 106.903 C 272.661 108.351,272.965 109.589,272.924 109.654 C 272.884 109.719,273.037 110.174,273.264 110.664 C 276.287 117.188,277.162 129.856,275.407 141.685 C 274.518 147.674,273.439 150.016,269.851 153.750 C 268.125 155.546,268.119 155.554,269.586 154.143 L 271.083 152.703 275.654 151.686 C 278.168 151.127,280.248 150.692,280.276 150.720 C 280.303 150.748,278.231 152.601,275.671 154.838 C 273.111 157.075,271.042 158.931,271.074 158.963 C 271.105 158.994,272.132 158.634,273.357 158.163 C 274.581 157.692,277.811 156.455,280.533 155.414 C 283.256 154.372,285.632 153.441,285.812 153.345 C 286.473 152.991,289.074 148.095,290.095 145.283 C 290.494 144.185,290.845 143.128,290.992 142.583 C 291.611 140.297,291.832 139.418,292.060 138.333 C 293.356 132.187,293.189 122.769,291.669 116.250 C 291.584 115.883,291.360 114.908,291.171 114.083 C 290.983 113.258,290.678 112.058,290.494 111.417 C 290.309 110.775,290.116 110.023,290.064 109.746 C 290.010 109.461,289.768 109.099,289.508 108.913 C 289.254 108.731,288.418 108.106,287.650 107.523 C 285.706 106.046,283.469 104.743,279.575 102.818 C 275.813 100.958,275.835 100.966,276.324 101.708 M261.125 101.621 C 261.423 101.658,261.910 101.658,262.208 101.621 C 262.506 101.584,262.262 101.553,261.667 101.553 C 261.071 101.553,260.827 101.584,261.125 101.621 M259.208 101.782 C 259.369 101.823,259.631 101.823,259.792 101.782 C 259.952 101.740,259.821 101.705,259.500 101.705 C 259.179 101.705,259.048 101.740,259.208 101.782 M217.519 102.352 C 217.416 102.646,217.361 102.917,217.397 102.952 C 217.432 102.988,217.545 102.776,217.648 102.481 C 217.751 102.187,217.806 101.917,217.770 101.881 C 217.734 101.845,217.621 102.057,217.519 102.352 M216.519 104.852 C 216.416 105.146,216.361 105.417,216.397 105.452 C 216.432 105.488,216.545 105.276,216.648 104.981 C 216.751 104.687,216.806 104.417,216.770 104.381 C 216.734 104.345,216.621 104.557,216.519 104.852 M271.167 106.833 C 271.362 107.108,271.560 107.333,271.606 107.333 C 271.652 107.333,271.529 107.108,271.333 106.833 C 271.138 106.558,270.940 106.333,270.894 106.333 C 270.848 106.333,270.971 106.558,271.167 106.833 M215.354 107.771 C 215.155 108.290,215.021 108.743,215.055 108.778 C 215.090 108.812,215.280 108.415,215.479 107.896 C 215.678 107.377,215.812 106.923,215.778 106.889 C 215.744 106.855,215.553 107.252,215.354 107.771 M89.464 107.956 C 89.948 107.990,90.698 107.990,91.131 107.956 C 91.563 107.921,91.167 107.894,90.250 107.894 C 89.333 107.895,88.980 107.923,89.464 107.956 M230.391 118.240 C 236.893 119.484,237.258 125.258,230.972 127.434 C 227.648 128.584,223.196 127.875,221.300 125.895 C 217.584 122.012,223.606 116.942,230.391 118.240 M213.833 119.648 C 217.628 121.484,215.801 125.354,211.011 125.627 C 205.316 125.951,203.813 120.898,209.155 119.384 C 210.329 119.052,212.901 119.196,213.833 119.648 M81.500 124.917 C 82.091 125.513,82.611 126.000,82.657 126.000 C 82.703 126.000,82.257 125.513,81.667 124.917 C 81.076 124.321,80.555 123.833,80.510 123.833 C 80.464 123.833,80.909 124.321,81.500 124.917 M220.692 127.823 C 228.796 130.358,223.063 138.545,214.373 136.846 C 207.983 135.597,208.433 129.019,215.000 127.689 C 215.504 127.587,216.067 127.469,216.250 127.426 C 216.992 127.256,219.631 127.491,220.692 127.823 M149.238 141.184 C 138.970 148.824,135.231 156.969,133.828 174.750 C 133.579 177.906,133.677 177.667,132.630 177.667 C 128.703 177.670,117.824 179.365,113.771 180.607 C 113.540 180.677,113.493 180.643,113.591 180.476 C 113.664 180.352,113.574 180.381,113.391 180.542 C 113.207 180.702,112.976 180.833,112.877 180.833 C 112.778 180.833,111.578 181.204,110.211 181.657 C 103.318 183.942,97.679 187.134,93.953 190.860 C 93.235 191.579,92.572 192.167,92.480 192.167 C 92.389 192.167,92.363 192.246,92.423 192.344 C 92.483 192.441,92.401 192.667,92.240 192.845 C 91.787 193.345,92.018 193.367,93.138 192.928 C 97.157 191.353,102.695 190.343,113.333 189.246 C 118.768 188.686,121.984 188.300,123.808 187.989 C 127.255 187.402,128.669 187.649,129.657 189.013 C 131.363 191.368,130.378 195.825,127.081 200.669 L 125.841 202.493 126.629 202.397 C 141.024 200.652,158.800 194.779,170.098 188.036 C 171.206 187.374,172.205 186.833,172.316 186.833 C 172.428 186.833,172.473 186.758,172.416 186.665 C 172.358 186.573,172.530 186.232,172.796 185.909 L 173.281 185.321 170.513 182.535 C 165.227 177.216,161.316 172.012,158.621 166.709 C 157.642 164.784,157.333 164.351,157.333 164.905 C 157.333 165.035,157.067 165.362,156.741 165.631 C 153.464 168.332,146.113 164.381,148.113 160.994 C 149.138 159.260,152.927 159.138,155.379 160.761 C 156.213 161.312,156.204 161.382,155.546 159.311 L 154.983 157.538 154.117 157.873 C 150.996 159.079,147.000 157.559,147.000 155.167 C 147.000 153.157,150.155 151.357,153.014 151.736 C 153.700 151.827,153.833 151.801,153.833 151.577 C 153.833 151.246,153.055 147.797,152.801 147.004 L 152.616 146.425 152.378 147.241 C 151.337 150.812,144.291 152.708,143.156 149.723 C 141.788 146.123,148.822 142.172,151.900 144.812 C 152.321 145.173,152.214 144.720,151.319 142.340 C 150.483 140.118,150.590 140.178,149.238 141.184 M210.228 144.414 C 215.502 146.908,217.507 153.709,213.303 154.841 C 209.108 155.971,203.163 149.714,204.666 145.750 C 205.364 143.908,207.882 143.304,210.228 144.414 M85.709 156.583 C 85.711 156.950,85.745 157.080,85.785 156.873 C 85.824 156.666,85.823 156.366,85.781 156.206 C 85.739 156.047,85.707 156.217,85.709 156.583 M143.221 156.727 C 146.454 158.078,147.114 166.844,144.440 172.917 C 140.872 181.022,135.500 179.431,135.500 170.267 C 135.500 162.379,139.589 155.209,143.221 156.727 M216.408 157.069 C 218.828 158.488,220.330 162.203,219.365 164.384 C 217.798 167.927,212.424 164.453,212.208 159.758 C 212.077 156.904,214.012 155.665,216.408 157.069 M263.458 158.595 C 262.835 158.933,262.873 159.074,263.500 158.750 C 263.775 158.608,264.000 158.456,264.000 158.412 C 264.000 158.305,263.982 158.311,263.458 158.595 M85.553 160.000 C 85.553 160.596,85.584 160.840,85.621 160.542 C 85.658 160.244,85.658 159.756,85.621 159.458 C 85.584 159.160,85.553 159.404,85.553 160.000 M260.167 160.333 C 259.846 160.509,259.658 160.653,259.750 160.653 C 259.842 160.653,260.179 160.509,260.500 160.333 C 260.821 160.158,261.008 160.014,260.917 160.014 C 260.825 160.014,260.487 160.158,260.167 160.333 M278.833 162.583 C 278.150 163.271,277.629 163.833,277.675 163.833 C 277.721 163.833,278.317 163.271,279.000 162.583 C 279.683 161.896,280.204 161.333,280.158 161.333 C 280.112 161.333,279.516 161.896,278.833 162.583 M85.709 163.583 C 85.711 163.950,85.745 164.080,85.785 163.873 C 85.824 163.666,85.823 163.366,85.781 163.206 C 85.739 163.047,85.707 163.217,85.709 163.583 M152.191 166.740 C 157.537 167.874,158.667 173.102,153.644 173.463 C 150.894 173.660,147.859 171.998,147.255 169.963 C 146.536 167.544,148.851 166.033,152.191 166.740 M149.621 178.990 C 156.151 181.518,156.067 187.863,149.504 187.863 C 143.241 187.863,138.477 182.066,142.447 179.276 C 144.048 178.151,147.136 178.028,149.621 178.990 M174.700 182.923 C 174.875 183.307,174.916 183.322,175.155 183.083 C 175.386 182.852,175.388 182.803,175.167 182.663 C 174.681 182.356,174.490 182.462,174.700 182.923 M93.409 186.208 L 92.750 186.917 93.458 186.258 C 94.117 185.645,94.243 185.500,94.117 185.500 C 94.090 185.500,93.771 185.819,93.409 186.208 M91.667 187.917 C 91.262 188.329,90.968 188.667,91.014 188.667 C 91.060 188.667,91.428 188.329,91.833 187.917 C 92.238 187.504,92.532 187.167,92.486 187.167 C 92.440 187.167,92.072 187.504,91.667 187.917 M176.385 187.949 C 176.525 188.176,177.833 189.231,177.833 189.117 C 177.833 189.075,177.481 188.751,177.049 188.398 C 176.618 188.045,176.319 187.843,176.385 187.949 M178.163 188.828 C 178.357 189.101,178.601 189.376,178.705 189.440 C 178.809 189.504,178.684 189.282,178.427 188.945 C 177.870 188.215,177.660 188.122,178.163 188.828 M83.923 193.343 C 83.976 193.429,84.290 193.500,84.621 193.500 C 85.359 193.500,85.292 193.413,84.455 193.283 C 84.080 193.226,83.865 193.250,83.923 193.343 M86.208 193.282 C 86.369 193.323,86.631 193.323,86.792 193.282 C 86.952 193.240,86.821 193.205,86.500 193.205 C 86.179 193.205,86.048 193.240,86.208 193.282 M113.417 201.730 C 106.477 203.586,102.059 208.617,101.324 215.500 C 101.030 218.254,101.024 218.249,103.791 217.341 C 111.891 214.681,117.822 210.920,119.835 207.167 C 121.994 203.140,118.670 200.324,113.417 201.730 M230.250 201.450 C 230.787 201.998,231.867 202.851,231.500 202.437 C 231.271 202.179,230.858 201.813,230.583 201.623 C 230.308 201.434,230.158 201.356,230.250 201.450 M223.900 202.375 C 223.293 203.019,222.527 203.981,222.939 203.583 C 223.383 203.155,224.704 201.667,224.641 201.667 C 224.602 201.667,224.268 201.985,223.900 202.375 M234.542 210.083 C 234.544 210.450,234.578 210.580,234.618 210.373 C 234.658 210.166,234.656 209.866,234.615 209.706 C 234.573 209.547,234.540 209.717,234.542 210.083 M220.562 212.417 C 220.563 213.425,220.590 213.816,220.623 213.286 C 220.657 212.755,220.656 211.930,220.623 211.452 C 220.589 210.974,220.562 211.408,220.562 212.417 M234.724 212.417 C 234.724 213.150,234.754 213.429,234.789 213.037 C 234.824 212.645,234.824 212.045,234.788 211.704 C 234.752 211.363,234.723 211.683,234.724 212.417 M169.906 213.375 L 169.417 213.917 169.958 213.427 C 170.256 213.158,170.500 212.914,170.500 212.885 C 170.500 212.757,170.362 212.870,169.906 213.375 M234.542 214.583 C 234.544 214.950,234.578 215.080,234.618 214.873 C 234.658 214.666,234.656 214.366,234.615 214.206 C 234.573 214.047,234.540 214.217,234.542 214.583 M234.104 216.854 C 234.046 217.147,234.029 217.417,234.066 217.455 C 234.104 217.493,234.187 217.288,234.250 217.000 C 234.313 216.712,234.330 216.441,234.288 216.399 C 234.245 216.357,234.163 216.561,234.104 216.854 M227.128 224.121 C 227.428 224.158,227.878 224.157,228.128 224.119 C 228.378 224.081,228.133 224.051,227.583 224.052 C 227.033 224.053,226.828 224.084,227.128 224.121 M115.708 225.615 C 115.869 225.657,116.131 225.657,116.292 225.615 C 116.452 225.573,116.321 225.539,116.000 225.539 C 115.679 225.539,115.548 225.573,115.708 225.615 M117.250 225.939 C 117.342 226.020,117.679 226.310,117.999 226.585 L 118.582 227.083 118.166 226.610 C 117.937 226.349,117.600 226.059,117.417 225.964 C 117.233 225.870,117.158 225.859,117.250 225.939 M112.218 231.083 C 112.219 231.633,112.250 231.838,112.287 231.539 C 112.325 231.239,112.324 230.789,112.286 230.539 C 112.248 230.288,112.217 230.533,112.218 231.083 M113.067 234.583 C 113.198 234.858,113.590 235.346,113.938 235.667 L 114.572 236.250 113.911 235.489 C 113.547 235.071,113.155 234.583,113.039 234.406 C 112.923 234.228,112.936 234.308,113.067 234.583 M117.906 235.708 L 117.417 236.250 117.958 235.760 C 118.463 235.304,118.577 235.167,118.448 235.167 C 118.419 235.167,118.175 235.410,117.906 235.708 M106.240 236.375 L 105.750 236.917 106.292 236.427 C 106.797 235.971,106.910 235.833,106.781 235.833 C 106.752 235.833,106.509 236.077,106.240 236.375 M111.000 235.885 C 111.000 235.914,111.244 236.158,111.542 236.427 L 112.083 236.917 111.594 236.375 C 111.138 235.870,111.000 235.757,111.000 235.885 M113.114 239.667 C 113.168 240.079,113.240 240.448,113.273 240.486 C 113.399 240.631,113.303 239.568,113.162 239.250 C 113.064 239.027,113.048 239.166,113.114 239.667 M119.705 239.833 C 119.705 240.154,119.740 240.285,119.782 240.125 C 119.823 239.965,119.823 239.702,119.782 239.542 C 119.740 239.381,119.705 239.512,119.705 239.833 M126.392 241.417 C 126.392 242.242,126.420 242.600,126.455 242.213 C 126.490 241.827,126.490 241.152,126.456 240.713 C 126.422 240.275,126.393 240.592,126.392 241.417 M113.187 242.750 C 113.173 242.933,113.124 243.271,113.076 243.500 L 112.991 243.917 113.169 243.508 C 113.267 243.283,113.317 242.945,113.280 242.758 C 113.214 242.425,113.211 242.425,113.187 242.750 M119.705 243.000 C 119.705 243.321,119.740 243.452,119.782 243.292 C 119.823 243.131,119.823 242.869,119.782 242.708 C 119.740 242.548,119.705 242.679,119.705 243.000 M106.167 246.417 C 106.478 246.737,106.770 247.000,106.815 247.000 C 106.861 247.000,106.644 246.737,106.333 246.417 C 106.022 246.096,105.730 245.833,105.685 245.833 C 105.639 245.833,105.856 246.096,106.167 246.417 M111.491 246.458 L 110.917 247.083 111.542 246.509 C 112.123 245.974,112.243 245.833,112.116 245.833 C 112.088 245.833,111.807 246.115,111.491 246.458 M120.798 246.263 C 120.997 246.630,121.975 247.595,122.040 247.488 C 122.064 247.449,121.755 247.085,121.354 246.679 C 120.952 246.274,120.702 246.086,120.798 246.263 M110.708 252.115 C 110.869 252.157,111.131 252.157,111.292 252.115 C 111.452 252.073,111.321 252.039,111.000 252.039 C 110.679 252.039,110.548 252.073,110.708 252.115 M124.042 252.115 C 124.202 252.157,124.465 252.157,124.625 252.115 C 124.785 252.073,124.654 252.039,124.333 252.039 C 124.013 252.039,123.881 252.073,124.042 252.115 M116.881 252.457 C 117.412 252.490,118.237 252.490,118.714 252.456 C 119.192 252.422,118.758 252.395,117.750 252.396 C 116.742 252.396,116.351 252.424,116.881 252.457 M118.127 257.285 C 118.334 257.324,118.634 257.323,118.794 257.281 C 118.953 257.239,118.783 257.207,118.417 257.209 C 118.050 257.211,117.920 257.245,118.127 257.285 M123.875 257.282 C 124.035 257.323,124.298 257.323,124.458 257.282 C 124.619 257.240,124.487 257.205,124.167 257.205 C 123.846 257.205,123.715 257.240,123.875 257.282 M202.810 266.917 C 202.790 267.316,202.366 265.729,202.364 265.250 C 202.364 265.067,202.467 265.292,202.595 265.750 C 202.723 266.208,202.819 266.733,202.810 266.917 " stroke="none" fill="#636779" fill-rule="evenodd"></path></g></svg>